<svg width="526" height="251" viewBox="0 0 526 251" fill="none" xmlns="http://www.w3.org/2000/svg">
<path d="M220 110C220 170.751 170.751 220 110 220C49.2487 220 0 170.751 0 110C0 49.2487 49.2487 0 110 0C170.751 0 220 49.2487 220 110ZM50.0889 110C50.0889 143.088 76.912 169.911 110 169.911C143.088 169.911 169.911 143.088 169.911 110C169.911 76.912 143.088 50.0889 110 50.0889C76.912 50.0889 50.0889 76.912 50.0889 110Z" fill="#454544" fill-opacity="0.5"/>
<path d="M220 110C220 134.215 212.01 157.753 197.269 176.964C182.528 196.175 161.86 209.985 138.47 216.252C115.08 222.519 90.2764 220.893 67.9048 211.627C45.5333 202.36 26.8446 185.971 14.7372 165C2.62983 144.029 -2.2196 119.65 0.941064 95.6421C4.10172 71.6345 15.0958 49.3407 32.2183 32.2183C49.3407 15.0958 71.6345 4.10173 95.6421 0.941066C119.65 -2.2196 144.029 2.62982 165 14.7372L139.956 58.1155C128.534 51.5212 115.256 48.88 102.18 50.6014C89.1044 52.3229 76.9621 58.3108 67.6364 67.6365C58.3108 76.9621 52.3229 89.1044 50.6014 102.18C48.88 115.256 51.5212 128.534 58.1155 139.956C64.7097 151.377 74.8884 160.304 87.073 165.351C99.2576 170.398 112.767 171.283 125.506 167.87C138.245 164.456 149.502 156.935 157.531 146.472C165.559 136.008 169.911 123.188 169.911 110H220Z" fill="#5D88C6"/>
<path d="M74.032 127L84.3104 106.648V106.494H72.2422V100.818H91.674V106.494L81.3445 127H74.032ZM104.96 127.358C102.949 127.358 101.163 127.004 99.6033 126.297C98.0522 125.581 96.8292 124.597 95.9343 123.344C95.0479 122.091 94.5962 120.651 94.5792 119.023H101.483C101.508 119.926 101.858 120.646 102.531 121.183C103.213 121.72 104.022 121.989 104.96 121.989C105.684 121.989 106.324 121.835 106.877 121.528C107.431 121.213 107.866 120.77 108.181 120.199C108.497 119.628 108.65 118.963 108.642 118.205C108.65 117.438 108.497 116.773 108.181 116.21C107.866 115.639 107.431 115.2 106.877 114.893C106.324 114.578 105.684 114.42 104.96 114.42C104.21 114.42 103.515 114.604 102.876 114.97C102.245 115.328 101.781 115.827 101.483 116.466L95.244 115.239L96.2667 100.818H113.858V106.494H102.096L101.585 112.273H101.738C102.147 111.48 102.855 110.824 103.86 110.304C104.866 109.776 106.034 109.511 107.363 109.511C108.923 109.511 110.312 109.874 111.531 110.598C112.758 111.322 113.725 112.324 114.433 113.602C115.149 114.872 115.502 116.338 115.494 118C115.502 119.824 115.068 121.443 114.19 122.858C113.321 124.264 112.098 125.368 110.521 126.169C108.944 126.962 107.091 127.358 104.96 127.358ZM133.542 122.091V120.71C133.542 119.602 133.781 118.58 134.258 117.642C134.744 116.705 135.447 115.95 136.367 115.379C137.288 114.808 138.408 114.523 139.729 114.523C141.085 114.523 142.222 114.804 143.143 115.366C144.072 115.929 144.775 116.679 145.252 117.616C145.729 118.554 145.968 119.585 145.968 120.71V122.091C145.968 123.199 145.725 124.222 145.239 125.159C144.762 126.097 144.059 126.851 143.13 127.422C142.201 127.993 141.067 128.278 139.729 128.278C138.391 128.278 137.262 127.993 136.342 127.422C135.421 126.851 134.722 126.097 134.245 125.159C133.776 124.222 133.542 123.199 133.542 122.091ZM137.991 120.71V122.091C137.991 122.577 138.11 123.058 138.349 123.536C138.596 124.004 139.056 124.239 139.729 124.239C140.437 124.239 140.901 124.009 141.123 123.548C141.353 123.088 141.468 122.602 141.468 122.091V120.71C141.468 120.199 141.362 119.705 141.148 119.227C140.935 118.75 140.462 118.511 139.729 118.511C139.056 118.511 138.596 118.75 138.349 119.227C138.11 119.705 137.991 120.199 137.991 120.71ZM119.837 107.108V105.727C119.837 104.602 120.08 103.571 120.566 102.634C121.06 101.696 121.768 100.946 122.688 100.384C123.609 99.821 124.721 99.5398 126.025 99.5398C127.38 99.5398 128.518 99.821 129.438 100.384C130.367 100.946 131.07 101.696 131.548 102.634C132.025 103.571 132.263 104.602 132.263 105.727V107.108C132.263 108.233 132.021 109.26 131.535 110.189C131.058 111.118 130.354 111.859 129.425 112.413C128.496 112.967 127.363 113.244 126.025 113.244C124.687 113.244 123.558 112.963 122.637 112.401C121.717 111.838 121.018 111.092 120.54 110.163C120.072 109.234 119.837 108.216 119.837 107.108ZM124.337 105.727V107.108C124.337 107.619 124.457 108.105 124.695 108.565C124.934 109.026 125.377 109.256 126.025 109.256C126.732 109.256 127.197 109.026 127.418 108.565C127.648 108.105 127.763 107.619 127.763 107.108V105.727C127.763 105.216 127.657 104.722 127.444 104.244C127.231 103.767 126.758 103.528 126.025 103.528C125.352 103.528 124.9 103.776 124.67 104.27C124.448 104.756 124.337 105.241 124.337 105.727ZM122.011 127L140.011 100.818H143.641L125.641 127H122.011Z" fill="#454544"/>
<path d="M35.7593 247V238.273H41.64V239.794H37.6045V241.874H41.3374V243.395H37.6045V245.479H41.657V247H35.7593ZM45.507 247V238.273H48.9501C49.6092 238.273 50.1717 238.391 50.6376 238.626C51.1064 238.859 51.4629 239.19 51.7072 239.619C51.9544 240.045 52.078 240.547 52.078 241.124C52.078 241.703 51.953 242.202 51.703 242.619C51.453 243.034 51.0908 243.352 50.6163 243.574C50.1447 243.795 49.5737 243.906 48.9033 243.906H46.5979V242.423H48.605C48.9572 242.423 49.2499 242.375 49.4828 242.278C49.7158 242.182 49.8891 242.037 50.0027 241.844C50.1192 241.651 50.1774 241.411 50.1774 241.124C50.1774 240.834 50.1192 240.589 50.0027 240.391C49.8891 240.192 49.7143 240.041 49.4785 239.939C49.2456 239.834 48.9516 239.781 48.5964 239.781H47.3521V247H45.507ZM50.22 243.028L52.3891 247H50.3521L48.23 243.028H50.22ZM55.782 247V238.273H59.2251C59.8842 238.273 60.4467 238.391 60.9126 238.626C61.3814 238.859 61.7379 239.19 61.9822 239.619C62.2294 240.045 62.353 240.547 62.353 241.124C62.353 241.703 62.228 242.202 61.978 242.619C61.728 243.034 61.3658 243.352 60.8913 243.574C60.4197 243.795 59.8487 243.906 59.1783 243.906H56.8729V242.423H58.88C59.2322 242.423 59.5249 242.375 59.7578 242.278C59.9908 242.182 60.1641 242.037 60.2777 241.844C60.3942 241.651 60.4524 241.411 60.4524 241.124C60.4524 240.834 60.3942 240.589 60.2777 240.391C60.1641 240.192 59.9893 240.041 59.7535 239.939C59.5206 239.834 59.2266 239.781 58.8714 239.781H57.6271V247H55.782ZM60.495 243.028L62.6641 247H60.6271L58.505 243.028H60.495ZM74.0768 242.636C74.0768 243.588 73.8964 244.398 73.5357 245.065C73.1777 245.733 72.6891 246.243 72.0697 246.595C71.4533 246.945 70.7601 247.119 69.9902 247.119C69.2146 247.119 68.5186 246.943 67.9021 246.591C67.2857 246.239 66.7984 245.729 66.4405 245.061C66.0825 244.393 65.9035 243.585 65.9035 242.636C65.9035 241.685 66.0825 240.875 66.4405 240.207C66.7984 239.54 67.2857 239.031 67.9021 238.682C68.5186 238.33 69.2146 238.153 69.9902 238.153C70.7601 238.153 71.4533 238.33 72.0697 238.682C72.6891 239.031 73.1777 239.54 73.5357 240.207C73.8964 240.875 74.0768 241.685 74.0768 242.636ZM72.2061 242.636C72.2061 242.02 72.1138 241.5 71.9291 241.077C71.7473 240.653 71.4902 240.332 71.1578 240.114C70.8254 239.895 70.4362 239.786 69.9902 239.786C69.5442 239.786 69.155 239.895 68.8226 240.114C68.4902 240.332 68.2317 240.653 68.047 241.077C67.8652 241.5 67.7743 242.02 67.7743 242.636C67.7743 243.253 67.8652 243.773 68.047 244.196C68.2317 244.619 68.4902 244.94 68.8226 245.159C69.155 245.378 69.5442 245.487 69.9902 245.487C70.4362 245.487 70.8254 245.378 71.1578 245.159C71.4902 244.94 71.7473 244.619 71.9291 244.196C72.1138 243.773 72.2061 243.253 72.2061 242.636ZM77.8437 247V238.273H81.2869C81.9459 238.273 82.5084 238.391 82.9744 238.626C83.4431 238.859 83.7996 239.19 84.044 239.619C84.2911 240.045 84.4147 240.547 84.4147 241.124C84.4147 241.703 84.2897 242.202 84.0397 242.619C83.7897 243.034 83.4275 243.352 82.953 243.574C82.4815 243.795 81.9104 243.906 81.24 243.906H78.9346V242.423H80.9417C81.294 242.423 81.5866 242.375 81.8195 242.278C82.0525 242.182 82.2258 242.037 82.3394 241.844C82.4559 241.651 82.5141 241.411 82.5141 241.124C82.5141 240.834 82.4559 240.589 82.3394 240.391C82.2258 240.192 82.0511 240.041 81.8153 239.939C81.5823 239.834 81.2883 239.781 80.9332 239.781H79.6888V247H77.8437ZM82.5567 243.028L84.7258 247H82.6888L80.5667 243.028H82.5567ZM92.8531 240.783C92.819 240.439 92.6727 240.172 92.4141 239.982C92.1556 239.791 91.8048 239.696 91.3616 239.696C91.0604 239.696 90.8062 239.739 90.5988 239.824C90.3914 239.906 90.2323 240.021 90.1215 240.169C90.0136 240.317 89.9596 240.484 89.9596 240.672C89.9539 240.828 89.9866 240.964 90.0576 241.081C90.1315 241.197 90.2323 241.298 90.3602 241.384C90.488 241.466 90.6357 241.538 90.8033 241.601C90.9709 241.661 91.1499 241.712 91.3403 241.754L92.1244 241.942C92.505 242.027 92.8545 242.141 93.1727 242.283C93.4908 242.425 93.7664 242.599 93.9994 242.807C94.2323 243.014 94.4127 243.259 94.5406 243.54C94.6712 243.821 94.738 244.143 94.7408 244.507C94.738 245.041 94.6016 245.504 94.3317 245.896C94.0647 246.286 93.6783 246.588 93.1727 246.804C92.6698 247.017 92.0633 247.124 91.3531 247.124C90.6485 247.124 90.0349 247.016 89.5121 246.8C88.9923 246.584 88.586 246.264 88.2934 245.841C88.0036 245.415 87.8516 244.888 87.8374 244.26H89.6229C89.6428 244.553 89.7266 244.797 89.8744 244.993C90.0249 245.186 90.2252 245.332 90.4752 245.432C90.7281 245.528 91.0136 245.577 91.3317 245.577C91.6442 245.577 91.9156 245.531 92.1457 245.44C92.3786 245.349 92.559 245.223 92.6869 245.061C92.8147 244.899 92.8786 244.713 92.8786 244.503C92.8786 244.307 92.8204 244.142 92.7039 244.009C92.5903 243.875 92.4227 243.761 92.2011 243.668C91.9823 243.574 91.7138 243.489 91.3957 243.412L90.4454 243.173C89.7096 242.994 89.1286 242.714 88.7025 242.334C88.2763 241.953 88.0647 241.44 88.0675 240.795C88.0647 240.267 88.2053 239.805 88.4894 239.411C88.7763 239.016 89.1698 238.707 89.6698 238.486C90.1698 238.264 90.738 238.153 91.3744 238.153C92.0221 238.153 92.5874 238.264 93.0704 238.486C93.5562 238.707 93.934 239.016 94.2039 239.411C94.4738 239.805 94.613 240.263 94.6215 240.783H92.8531ZM103.559 247V238.273H107.002C107.662 238.273 108.224 238.391 108.69 238.626C109.159 238.859 109.515 239.19 109.76 239.619C110.007 240.045 110.13 240.547 110.13 241.124C110.13 241.703 110.005 242.202 109.755 242.619C109.505 243.034 109.143 243.352 108.669 243.574C108.197 243.795 107.626 243.906 106.956 243.906H104.65V242.423H106.657C107.01 242.423 107.302 242.375 107.535 242.278C107.768 242.182 107.941 242.037 108.055 241.844C108.172 241.651 108.23 241.411 108.23 241.124C108.23 240.834 108.172 240.589 108.055 240.391C107.941 240.192 107.767 240.041 107.531 239.939C107.298 239.834 107.004 239.781 106.649 239.781H105.404V247H103.559ZM108.272 243.028L110.441 247H108.404L106.282 243.028H108.272ZM113.834 247V238.273H119.715V239.794H115.679V241.874H119.412V243.395H115.679V245.479H119.732V247H113.834ZM128.316 240.783C128.282 240.439 128.136 240.172 127.877 239.982C127.619 239.791 127.268 239.696 126.825 239.696C126.524 239.696 126.269 239.739 126.062 239.824C125.855 239.906 125.696 240.021 125.585 240.169C125.477 240.317 125.423 240.484 125.423 240.672C125.417 240.828 125.45 240.964 125.521 241.081C125.595 241.197 125.696 241.298 125.823 241.384C125.951 241.466 126.099 241.538 126.267 241.601C126.434 241.661 126.613 241.712 126.804 241.754L127.588 241.942C127.968 242.027 128.318 242.141 128.636 242.283C128.954 242.425 129.23 242.599 129.463 242.807C129.696 243.014 129.876 243.259 130.004 243.54C130.135 243.821 130.201 244.143 130.204 244.507C130.201 245.041 130.065 245.504 129.795 245.896C129.528 246.286 129.142 246.588 128.636 246.804C128.133 247.017 127.527 247.124 126.816 247.124C126.112 247.124 125.498 247.016 124.975 246.8C124.456 246.584 124.049 246.264 123.757 245.841C123.467 245.415 123.315 244.888 123.301 244.26H125.086C125.106 244.553 125.19 244.797 125.338 244.993C125.488 245.186 125.688 245.332 125.938 245.432C126.191 245.528 126.477 245.577 126.795 245.577C127.108 245.577 127.379 245.531 127.609 245.44C127.842 245.349 128.022 245.223 128.15 245.061C128.278 244.899 128.342 244.713 128.342 244.503C128.342 244.307 128.284 244.142 128.167 244.009C128.054 243.875 127.886 243.761 127.664 243.668C127.446 243.574 127.177 243.489 126.859 243.412L125.909 243.173C125.173 242.994 124.592 242.714 124.166 242.334C123.74 241.953 123.528 241.44 123.531 240.795C123.528 240.267 123.669 239.805 123.953 239.411C124.24 239.016 124.633 238.707 125.133 238.486C125.633 238.264 126.201 238.153 126.838 238.153C127.485 238.153 128.051 238.264 128.534 238.486C129.019 238.707 129.397 239.016 129.667 239.411C129.937 239.805 130.076 240.263 130.085 240.783H128.316ZM141.865 242.636C141.865 243.588 141.685 244.398 141.324 245.065C140.966 245.733 140.477 246.243 139.858 246.595C139.242 246.945 138.548 247.119 137.778 247.119C137.003 247.119 136.307 246.943 135.69 246.591C135.074 246.239 134.587 245.729 134.229 245.061C133.871 244.393 133.692 243.585 133.692 242.636C133.692 241.685 133.871 240.875 134.229 240.207C134.587 239.54 135.074 239.031 135.69 238.682C136.307 238.33 137.003 238.153 137.778 238.153C138.548 238.153 139.242 238.33 139.858 238.682C140.477 239.031 140.966 239.54 141.324 240.207C141.685 240.875 141.865 241.685 141.865 242.636ZM139.994 242.636C139.994 242.02 139.902 241.5 139.717 241.077C139.536 240.653 139.278 240.332 138.946 240.114C138.614 239.895 138.224 239.786 137.778 239.786C137.332 239.786 136.943 239.895 136.611 240.114C136.278 240.332 136.02 240.653 135.835 241.077C135.653 241.5 135.563 242.02 135.563 242.636C135.563 243.253 135.653 243.773 135.835 244.196C136.02 244.619 136.278 244.94 136.611 245.159C136.943 245.378 137.332 245.487 137.778 245.487C138.224 245.487 138.614 245.378 138.946 245.159C139.278 244.94 139.536 244.619 139.717 244.196C139.902 243.773 139.994 243.253 139.994 242.636ZM145.632 247V238.273H147.477V245.479H151.219V247H145.632ZM155.48 238.273L157.589 244.903H157.67L159.784 238.273H161.829L158.821 247H156.443L153.43 238.273H155.48ZM165.28 247V238.273H171.16V239.794H167.125V241.874H170.858V243.395H167.125V245.479H171.177V247H165.28ZM178.121 247H175.027V238.273H178.147C179.024 238.273 179.78 238.447 180.414 238.797C181.047 239.143 181.534 239.642 181.875 240.293C182.219 240.943 182.391 241.722 182.391 242.628C182.391 243.537 182.219 244.318 181.875 244.972C181.534 245.625 181.044 246.126 180.405 246.476C179.769 246.825 179.007 247 178.121 247ZM176.872 245.419H178.044C178.59 245.419 179.049 245.322 179.421 245.129C179.796 244.933 180.077 244.631 180.264 244.222C180.455 243.81 180.55 243.278 180.55 242.628C180.55 241.983 180.455 241.456 180.264 241.047C180.077 240.638 179.797 240.337 179.425 240.143C179.053 239.95 178.594 239.854 178.049 239.854H176.872V245.419Z" fill="black"/>
<path d="M526 110C526 170.751 476.751 220 416 220C355.249 220 306 170.751 306 110C306 49.2487 355.249 0 416 0C476.751 0 526 49.2487 526 110ZM356.089 110C356.089 143.088 382.912 169.911 416 169.911C449.088 169.911 475.911 143.088 475.911 110C475.911 76.912 449.088 50.0889 416 50.0889C382.912 50.0889 356.089 76.912 356.089 110Z" fill="#454544" fill-opacity="0.5"/>
<path d="M526 110C526 137.328 515.828 163.677 497.465 183.915C479.102 204.154 453.863 216.833 426.664 219.482C399.465 222.131 372.254 214.561 350.331 198.247C328.407 181.932 313.341 158.042 308.068 131.228C302.794 104.414 307.69 76.5968 321.802 53.195C335.915 29.7932 358.232 12.4823 384.409 4.634C410.585 -3.2143 438.746 -1.03798 463.405 10.7391C488.065 22.5161 507.458 43.0505 517.807 68.3428L471.449 87.3115C465.812 73.5362 455.25 62.3522 441.819 55.9379C428.388 49.5236 413.051 48.3382 398.794 52.6128C384.537 56.8873 372.382 66.3157 364.696 79.0614C357.009 91.8071 354.343 106.957 357.215 121.562C360.087 136.166 368.293 149.178 380.233 158.063C392.174 166.949 406.994 171.072 421.808 169.629C436.622 168.186 450.368 161.281 460.37 150.258C470.371 139.235 475.911 124.884 475.911 110H526Z" fill="#5D88C6"/>
<path d="M386.464 100.46C387.99 100.46 389.434 100.703 390.798 101.189C392.161 101.666 393.367 102.42 394.416 103.452C395.472 104.483 396.299 105.83 396.896 107.491C397.501 109.145 397.808 111.148 397.816 113.5C397.825 115.648 397.556 117.578 397.011 119.291C396.474 120.996 395.703 122.449 394.697 123.651C393.7 124.852 392.498 125.773 391.092 126.412C389.694 127.043 388.134 127.358 386.413 127.358C384.478 127.358 382.778 126.987 381.312 126.246C379.846 125.504 378.678 124.507 377.809 123.254C376.94 122.001 376.433 120.608 376.288 119.074H383.294C383.464 119.866 383.839 120.442 384.419 120.8C384.998 121.149 385.663 121.324 386.413 121.324C387.913 121.324 389.008 120.676 389.698 119.381C390.397 118.077 390.751 116.338 390.759 114.165H390.606C390.274 114.966 389.771 115.652 389.097 116.223C388.424 116.794 387.64 117.233 386.745 117.54C385.85 117.847 384.904 118 383.907 118C382.33 118 380.95 117.646 379.765 116.939C378.58 116.223 377.656 115.247 376.991 114.011C376.326 112.767 375.99 111.352 375.981 109.767C375.972 107.909 376.411 106.281 377.298 104.884C378.184 103.486 379.416 102.399 380.992 101.624C382.569 100.848 384.393 100.46 386.464 100.46ZM386.515 105.83C385.808 105.83 385.177 105.991 384.623 106.315C384.078 106.639 383.647 107.078 383.332 107.632C383.025 108.186 382.876 108.812 382.884 109.511C382.893 110.21 383.051 110.837 383.357 111.391C383.673 111.945 384.099 112.384 384.636 112.707C385.181 113.031 385.808 113.193 386.515 113.193C387.035 113.193 387.517 113.104 387.96 112.925C388.403 112.737 388.786 112.477 389.11 112.145C389.443 111.804 389.698 111.412 389.877 110.969C390.065 110.517 390.154 110.031 390.146 109.511C390.137 108.812 389.975 108.186 389.66 107.632C389.345 107.078 388.914 106.639 388.369 106.315C387.823 105.991 387.205 105.83 386.515 105.83ZM412.285 127.716C409.907 127.707 407.853 127.158 406.123 126.067C404.393 124.976 403.059 123.403 402.121 121.349C401.184 119.295 400.719 116.832 400.728 113.96C400.736 111.08 401.205 108.634 402.134 106.622C403.072 104.611 404.401 103.081 406.123 102.033C407.853 100.984 409.907 100.46 412.285 100.46C414.662 100.46 416.716 100.989 418.447 102.045C420.177 103.094 421.51 104.624 422.448 106.635C423.385 108.646 423.85 111.088 423.841 113.96C423.841 116.849 423.373 119.321 422.435 121.375C421.498 123.429 420.164 125.001 418.434 126.092C416.712 127.175 414.662 127.716 412.285 127.716ZM412.285 121.938C413.512 121.938 414.518 121.298 415.302 120.02C416.094 118.733 416.486 116.713 416.478 113.96C416.478 112.162 416.299 110.692 415.941 109.55C415.583 108.408 415.089 107.564 414.458 107.018C413.827 106.464 413.103 106.188 412.285 106.188C411.057 106.188 410.056 106.81 409.28 108.054C408.505 109.298 408.108 111.267 408.091 113.96C408.083 115.793 408.258 117.301 408.616 118.486C408.974 119.662 409.468 120.531 410.099 121.094C410.738 121.656 411.466 121.938 412.285 121.938ZM442.161 122.091V120.71C442.161 119.602 442.4 118.58 442.877 117.642C443.363 116.705 444.066 115.95 444.986 115.379C445.907 114.808 447.028 114.523 448.349 114.523C449.704 114.523 450.841 114.804 451.762 115.366C452.691 115.929 453.394 116.679 453.871 117.616C454.349 118.554 454.587 119.585 454.587 120.71V122.091C454.587 123.199 454.344 124.222 453.858 125.159C453.381 126.097 452.678 126.851 451.749 127.422C450.82 127.993 449.687 128.278 448.349 128.278C447.01 128.278 445.881 127.993 444.961 127.422C444.04 126.851 443.341 126.097 442.864 125.159C442.395 124.222 442.161 123.199 442.161 122.091ZM446.61 120.71V122.091C446.61 122.577 446.729 123.058 446.968 123.536C447.215 124.004 447.675 124.239 448.349 124.239C449.056 124.239 449.52 124.009 449.742 123.548C449.972 123.088 450.087 122.602 450.087 122.091V120.71C450.087 120.199 449.981 119.705 449.768 119.227C449.555 118.75 449.081 118.511 448.349 118.511C447.675 118.511 447.215 118.75 446.968 119.227C446.729 119.705 446.61 120.199 446.61 120.71ZM428.456 107.108V105.727C428.456 104.602 428.699 103.571 429.185 102.634C429.68 101.696 430.387 100.946 431.307 100.384C432.228 99.821 433.34 99.5398 434.644 99.5398C435.999 99.5398 437.137 99.821 438.057 100.384C438.986 100.946 439.689 101.696 440.167 102.634C440.644 103.571 440.883 104.602 440.883 105.727V107.108C440.883 108.233 440.64 109.26 440.154 110.189C439.677 111.118 438.974 111.859 438.045 112.413C437.116 112.967 435.982 113.244 434.644 113.244C433.306 113.244 432.177 112.963 431.256 112.401C430.336 111.838 429.637 111.092 429.16 110.163C428.691 109.234 428.456 108.216 428.456 107.108ZM432.956 105.727V107.108C432.956 107.619 433.076 108.105 433.314 108.565C433.553 109.026 433.996 109.256 434.644 109.256C435.351 109.256 435.816 109.026 436.037 108.565C436.268 108.105 436.383 107.619 436.383 107.108V105.727C436.383 105.216 436.276 104.722 436.063 104.244C435.85 103.767 435.377 103.528 434.644 103.528C433.971 103.528 433.519 103.776 433.289 104.27C433.067 104.756 432.956 105.241 432.956 105.727ZM430.63 127L448.63 100.818H452.26L434.26 127H430.63Z" fill="#454544"/>
<path d="M354.164 238.273H356.01V243.94C356.01 244.577 355.858 245.134 355.554 245.611C355.252 246.088 354.831 246.46 354.288 246.727C353.745 246.991 353.113 247.124 352.392 247.124C351.667 247.124 351.034 246.991 350.491 246.727C349.948 246.46 349.527 246.088 349.225 245.611C348.924 245.134 348.774 244.577 348.774 243.94V238.273H350.619V243.783C350.619 244.115 350.691 244.411 350.836 244.669C350.984 244.928 351.191 245.131 351.458 245.278C351.725 245.426 352.037 245.5 352.392 245.5C352.75 245.5 353.061 245.426 353.325 245.278C353.592 245.131 353.798 244.928 353.943 244.669C354.091 244.411 354.164 244.115 354.164 243.783V238.273ZM364.662 240.783C364.628 240.439 364.482 240.172 364.223 239.982C363.965 239.791 363.614 239.696 363.171 239.696C362.869 239.696 362.615 239.739 362.408 239.824C362.2 239.906 362.041 240.021 361.931 240.169C361.823 240.317 361.769 240.484 361.769 240.672C361.763 240.828 361.796 240.964 361.867 241.081C361.94 241.197 362.041 241.298 362.169 241.384C362.297 241.466 362.445 241.538 362.612 241.601C362.78 241.661 362.959 241.712 363.149 241.754L363.933 241.942C364.314 242.027 364.663 242.141 364.982 242.283C365.3 242.425 365.575 242.599 365.808 242.807C366.041 243.014 366.222 243.259 366.35 243.54C366.48 243.821 366.547 244.143 366.55 244.507C366.547 245.041 366.411 245.504 366.141 245.896C365.874 246.286 365.487 246.588 364.982 246.804C364.479 247.017 363.872 247.124 363.162 247.124C362.457 247.124 361.844 247.016 361.321 246.8C360.801 246.584 360.395 246.264 360.102 245.841C359.813 245.415 359.661 244.888 359.646 244.26H361.432C361.452 244.553 361.536 244.797 361.683 244.993C361.834 245.186 362.034 245.332 362.284 245.432C362.537 245.528 362.823 245.577 363.141 245.577C363.453 245.577 363.725 245.531 363.955 245.44C364.188 245.349 364.368 245.223 364.496 245.061C364.624 244.899 364.688 244.713 364.688 244.503C364.688 244.307 364.629 244.142 364.513 244.009C364.399 243.875 364.232 243.761 364.01 243.668C363.791 243.574 363.523 243.489 363.205 243.412L362.254 243.173C361.519 242.994 360.938 242.714 360.511 242.334C360.085 241.953 359.874 241.44 359.877 240.795C359.874 240.267 360.014 239.805 360.298 239.411C360.585 239.016 360.979 238.707 361.479 238.486C361.979 238.264 362.547 238.153 363.183 238.153C363.831 238.153 364.396 238.264 364.879 238.486C365.365 238.707 365.743 239.016 366.013 239.411C366.283 239.805 366.422 240.263 366.431 240.783H364.662ZM370.191 247V238.273H376.072V239.794H372.036V241.874H375.769V243.395H372.036V245.479H376.089V247H370.191ZM379.939 247V238.273H383.382C384.041 238.273 384.603 238.391 385.069 238.626C385.538 238.859 385.895 239.19 386.139 239.619C386.386 240.045 386.51 240.547 386.51 241.124C386.51 241.703 386.385 242.202 386.135 242.619C385.885 243.034 385.522 243.352 385.048 243.574C384.576 243.795 384.005 243.906 383.335 243.906H381.03V242.423H383.037C383.389 242.423 383.682 242.375 383.914 242.278C384.147 242.182 384.321 242.037 384.434 241.844C384.551 241.651 384.609 241.411 384.609 241.124C384.609 240.834 384.551 240.589 384.434 240.391C384.321 240.192 384.146 240.041 383.91 239.939C383.677 239.834 383.383 239.781 383.028 239.781H381.784V247H379.939ZM384.652 243.028L386.821 247H384.784L382.662 243.028H384.652ZM397.236 238.273V247H395.391V238.273H397.236ZM408.454 238.273V247H406.86L403.063 241.507H402.999V247H401.154V238.273H402.774L406.541 243.761H406.617V238.273H408.454ZM420.079 241.328H418.212C418.178 241.087 418.109 240.872 418.003 240.685C417.898 240.494 417.763 240.332 417.599 240.199C417.434 240.065 417.244 239.963 417.028 239.892C416.815 239.821 416.583 239.786 416.333 239.786C415.881 239.786 415.488 239.898 415.153 240.122C414.817 240.344 414.557 240.668 414.373 241.094C414.188 241.517 414.096 242.031 414.096 242.636C414.096 243.259 414.188 243.781 414.373 244.205C414.56 244.628 414.822 244.947 415.157 245.163C415.492 245.379 415.88 245.487 416.32 245.487C416.567 245.487 416.796 245.455 417.006 245.389C417.219 245.324 417.408 245.229 417.573 245.104C417.738 244.976 417.874 244.821 417.982 244.639C418.093 244.457 418.17 244.25 418.212 244.017L420.079 244.026C420.03 244.426 419.91 244.812 419.717 245.185C419.526 245.554 419.269 245.885 418.945 246.178C418.624 246.467 418.241 246.697 417.795 246.868C417.351 247.036 416.85 247.119 416.29 247.119C415.512 247.119 414.816 246.943 414.202 246.591C413.592 246.239 413.109 245.729 412.753 245.061C412.401 244.393 412.225 243.585 412.225 242.636C412.225 241.685 412.404 240.875 412.762 240.207C413.12 239.54 413.606 239.031 414.219 238.682C414.833 238.33 415.523 238.153 416.29 238.153C416.796 238.153 417.265 238.224 417.697 238.366C418.131 238.509 418.516 238.716 418.851 238.989C419.187 239.259 419.459 239.589 419.67 239.982C419.883 240.374 420.019 240.822 420.079 241.328ZM423.802 247V238.273H427.245C427.904 238.273 428.467 238.391 428.933 238.626C429.401 238.859 429.758 239.19 430.002 239.619C430.249 240.045 430.373 240.547 430.373 241.124C430.373 241.703 430.248 242.202 429.998 242.619C429.748 243.034 429.386 243.352 428.911 243.574C428.44 243.795 427.869 243.906 427.198 243.906H424.893V242.423H426.9C427.252 242.423 427.545 242.375 427.778 242.278C428.011 242.182 428.184 242.037 428.298 241.844C428.414 241.651 428.472 241.411 428.472 241.124C428.472 240.834 428.414 240.589 428.298 240.391C428.184 240.192 428.009 240.041 427.773 239.939C427.541 239.834 427.246 239.781 426.891 239.781H425.647V247H423.802ZM428.515 243.028L430.684 247H428.647L426.525 243.028H428.515ZM434.077 247V238.273H439.958V239.794H435.922V241.874H439.655V243.395H435.922V245.479H439.975V247H434.077ZM445.329 247H443.352L446.364 238.273H448.742L451.751 247H449.773L447.587 240.267H447.519L445.329 247ZM445.205 243.57H449.876V245.01H445.205V243.57ZM459.736 240.783C459.702 240.439 459.556 240.172 459.297 239.982C459.039 239.791 458.688 239.696 458.245 239.696C457.944 239.696 457.689 239.739 457.482 239.824C457.275 239.906 457.116 240.021 457.005 240.169C456.897 240.317 456.843 240.484 456.843 240.672C456.837 240.828 456.87 240.964 456.941 241.081C457.015 241.197 457.116 241.298 457.243 241.384C457.371 241.466 457.519 241.538 457.687 241.601C457.854 241.661 458.033 241.712 458.223 241.754L459.008 241.942C459.388 242.027 459.738 242.141 460.056 242.283C460.374 242.425 460.65 242.599 460.883 242.807C461.116 243.014 461.296 243.259 461.424 243.54C461.554 243.821 461.621 244.143 461.624 244.507C461.621 245.041 461.485 245.504 461.215 245.896C460.948 246.286 460.562 246.588 460.056 246.804C459.553 247.017 458.946 247.124 458.236 247.124C457.532 247.124 456.918 247.016 456.395 246.8C455.875 246.584 455.469 246.264 455.177 245.841C454.887 245.415 454.735 244.888 454.721 244.26H456.506C456.526 244.553 456.61 244.797 456.758 244.993C456.908 245.186 457.108 245.332 457.358 245.432C457.611 245.528 457.897 245.577 458.215 245.577C458.527 245.577 458.799 245.531 459.029 245.44C459.262 245.349 459.442 245.223 459.57 245.061C459.698 244.899 459.762 244.713 459.762 244.503C459.762 244.307 459.704 244.142 459.587 244.009C459.473 243.875 459.306 243.761 459.084 243.668C458.866 243.574 458.597 243.489 458.279 243.412L457.329 243.173C456.593 242.994 456.012 242.714 455.586 242.334C455.16 241.953 454.948 241.44 454.951 240.795C454.948 240.267 455.089 239.805 455.373 239.411C455.66 239.016 456.053 238.707 456.553 238.486C457.053 238.264 457.621 238.153 458.258 238.153C458.905 238.153 459.471 238.264 459.954 238.486C460.439 238.707 460.817 239.016 461.087 239.411C461.357 239.805 461.496 240.263 461.505 240.783H459.736ZM465.265 247V238.273H471.146V239.794H467.11V241.874H470.843V243.395H467.11V245.479H471.163V247H465.265ZM478.107 247H475.013V238.273H478.132C479.01 238.273 479.766 238.447 480.399 238.797C481.033 239.143 481.52 239.642 481.861 240.293C482.205 240.943 482.376 241.722 482.376 242.628C482.376 243.537 482.205 244.318 481.861 244.972C481.52 245.625 481.03 246.126 480.391 246.476C479.754 246.825 478.993 247 478.107 247ZM476.858 245.419H478.03C478.575 245.419 479.034 245.322 479.406 245.129C479.781 244.933 480.063 244.631 480.25 244.222C480.44 243.81 480.536 243.278 480.536 242.628C480.536 241.983 480.44 241.456 480.25 241.047C480.063 240.638 479.783 240.337 479.411 240.143C479.038 239.95 478.58 239.854 478.034 239.854H476.858V245.419Z" fill="black"/>
</svg>
