<svg width="1297" height="174" viewBox="0 0 1297 174" fill="none" xmlns="http://www.w3.org/2000/svg">
<path d="M197 33H299C308.428 33 313.142 33 316.071 35.9289C319 38.8579 319 43.5719 319 53V110" stroke="black" stroke-width="2" stroke-dasharray="4 4"/>
<path d="M637 33H739C748.428 33 753.142 33 756.071 35.9289C759 38.8579 759 43.5719 759 53V110" stroke="black" stroke-width="2" stroke-dasharray="4 4"/>
<path d="M1077 33H1179C1188.43 33 1193.14 33 1196.07 35.9289C1199 38.8579 1199 43.5719 1199 53V110" stroke="black" stroke-width="2" stroke-dasharray="4 4"/>
<path d="M417 142H519C528.428 142 533.142 142 536.071 139.071C539 136.142 539 131.428 539 122V64" stroke="black" stroke-width="2" stroke-dasharray="4 4"/>
<path d="M857 142H959C968.428 142 973.142 142 976.071 139.071C979 136.142 979 131.428 979 122V64" stroke="black" stroke-width="2" stroke-dasharray="4 4"/>
<rect width="197" height="64" rx="5" fill="#5C87C5"/>
<path d="M19.6725 37V26.8182H23.6896C24.4585 26.8182 25.1148 26.9557 25.6583 27.2308C26.2052 27.5026 26.6211 27.8887 26.9062 28.3892C27.1945 28.8864 27.3387 29.4714 27.3387 30.1442C27.3387 30.8203 27.1929 31.402 26.9012 31.8892C26.6095 32.3731 26.187 32.7443 25.6335 33.0028C25.0833 33.2614 24.4171 33.3906 23.6349 33.3906H20.9452V31.6605H23.2869C23.6978 31.6605 24.0392 31.6042 24.311 31.4915C24.5828 31.3788 24.785 31.2098 24.9175 30.9844C25.0534 30.759 25.1214 30.4789 25.1214 30.1442C25.1214 29.8061 25.0534 29.5211 24.9175 29.2891C24.785 29.0571 24.5811 28.8814 24.306 28.7621C24.0343 28.6394 23.6912 28.5781 23.2769 28.5781H21.8252V37H19.6725ZM25.1711 32.3665L27.7016 37H25.3252L22.8494 32.3665H25.1711ZM32.1773 37.1491C31.3918 37.1491 30.7157 36.9901 30.1489 36.6719C29.5855 36.3504 29.1513 35.8963 28.8463 35.3097C28.5414 34.7197 28.389 34.022 28.389 33.2166C28.389 32.4311 28.5414 31.7417 28.8463 31.1484C29.1513 30.5552 29.5805 30.0928 30.134 29.7614C30.6908 29.4299 31.3437 29.2642 32.0928 29.2642C32.5966 29.2642 33.0656 29.3454 33.4998 29.5078C33.9373 29.6669 34.3184 29.9072 34.6432 30.2287C34.9713 30.5502 35.2266 30.9545 35.4088 31.4418C35.5911 31.9257 35.6823 32.4924 35.6823 33.142V33.7237H29.2341V32.4112H33.6887C33.6887 32.1063 33.6224 31.8362 33.4898 31.6009C33.3572 31.3655 33.1733 31.1816 32.938 31.049C32.706 30.9131 32.4358 30.8452 32.1276 30.8452C31.8061 30.8452 31.5211 30.9197 31.2725 31.0689C31.0272 31.2147 30.835 31.4119 30.6958 31.6605C30.5566 31.9058 30.4853 32.1792 30.482 32.4808V33.7287C30.482 34.1065 30.5516 34.433 30.6908 34.7081C30.8333 34.9832 31.0338 35.1953 31.2924 35.3445C31.5509 35.4936 31.8575 35.5682 32.2121 35.5682C32.4474 35.5682 32.6629 35.535 32.8584 35.4688C33.054 35.4025 33.2213 35.303 33.3606 35.1705C33.4998 35.0379 33.6058 34.8755 33.6787 34.6832L35.6375 34.8125C35.5381 35.2831 35.3343 35.6941 35.026 36.0455C34.7211 36.3935 34.3267 36.6652 33.8428 36.8608C33.3622 37.053 32.807 37.1491 32.1773 37.1491ZM42.1106 39.8636V35.777H42.0459C41.9465 35.9891 41.8056 36.1996 41.6233 36.4084C41.4444 36.6139 41.2107 36.7846 40.9223 36.9205C40.6373 37.0563 40.2893 37.1243 39.8783 37.1243C39.2983 37.1243 38.773 36.9751 38.3023 36.6768C37.835 36.3752 37.4638 35.9328 37.1887 35.3494C36.9169 34.7628 36.781 34.0436 36.781 33.1918C36.781 32.3168 36.9219 31.5893 37.2036 31.0092C37.4853 30.4259 37.8598 29.9901 38.3272 29.7017C38.7978 29.41 39.3132 29.2642 39.8733 29.2642C40.3009 29.2642 40.6572 29.3371 40.9422 29.483C41.2306 29.6255 41.4626 29.8045 41.6382 30.0199C41.8172 30.232 41.9531 30.4408 42.0459 30.6463H42.1354V29.3636H44.2235V39.8636H42.1106ZM40.5495 35.4389C40.8909 35.4389 41.1792 35.3461 41.4145 35.1605C41.6532 34.9716 41.8355 34.7081 41.9614 34.37C42.0907 34.032 42.1553 33.6359 42.1553 33.1818C42.1553 32.7277 42.0923 32.3333 41.9664 31.9986C41.8404 31.6638 41.6581 31.4053 41.4195 31.223C41.1809 31.0407 40.8909 30.9496 40.5495 30.9496C40.2015 30.9496 39.9081 31.044 39.6695 31.233C39.4309 31.4219 39.2502 31.6837 39.1276 32.0185C39.005 32.3532 38.9436 32.741 38.9436 33.1818C38.9436 33.6259 39.005 34.0187 39.1276 34.3601C39.2535 34.6982 39.4342 34.9633 39.6695 35.1555C39.9081 35.3445 40.2015 35.4389 40.5495 35.4389ZM50.8208 33.7486V29.3636H52.9387V37H50.9053V35.6129H50.8257C50.6534 36.0604 50.3667 36.42 49.9657 36.6918C49.5679 36.9635 49.0824 37.0994 48.509 37.0994C47.9986 37.0994 47.5495 36.9834 47.1617 36.7514C46.7739 36.5194 46.4706 36.1896 46.2519 35.7621C46.0365 35.3345 45.9271 34.8224 45.9238 34.2259V29.3636H48.0417V33.848C48.045 34.2988 48.1659 34.6551 48.4046 34.9169C48.6432 35.1787 48.9631 35.3097 49.3641 35.3097C49.6193 35.3097 49.8579 35.2517 50.08 35.1357C50.3021 35.0163 50.4811 34.8407 50.6169 34.6087C50.7561 34.3767 50.8241 34.09 50.8208 33.7486ZM54.6327 37V29.3636H56.7506V37H54.6327ZM55.6967 28.3793C55.3818 28.3793 55.1117 28.2749 54.8863 28.0661C54.6642 27.8539 54.5532 27.6004 54.5532 27.3054C54.5532 27.0137 54.6642 26.7635 54.8863 26.5547C55.1117 26.3426 55.3818 26.2365 55.6967 26.2365C56.0115 26.2365 56.28 26.3426 56.5021 26.5547C56.7274 26.7635 56.8401 27.0137 56.8401 27.3054C56.8401 27.6004 56.7274 27.8539 56.5021 28.0661C56.28 28.2749 56.0115 28.3793 55.6967 28.3793ZM58.4472 37V29.3636H60.5005V30.696H60.58C60.7192 30.2221 60.9529 29.8641 61.281 29.6222C61.6091 29.3769 61.987 29.2543 62.4145 29.2543C62.5206 29.2543 62.6349 29.2609 62.7576 29.2741C62.8802 29.2874 62.9879 29.3056 63.0807 29.3288V31.2081C62.9813 31.1783 62.8437 31.1518 62.6681 31.1286C62.4924 31.1054 62.3317 31.0938 62.1858 31.0938C61.8743 31.0938 61.5959 31.1617 61.3506 31.2976C61.1087 31.4302 60.9164 31.6158 60.7739 31.8544C60.6347 32.093 60.5651 32.3681 60.5651 32.6797V37H58.4472ZM67.3004 37.1491C66.5148 37.1491 65.8387 36.9901 65.2719 36.6719C64.7085 36.3504 64.2743 35.8963 63.9694 35.3097C63.6645 34.7197 63.512 34.022 63.512 33.2166C63.512 32.4311 63.6645 31.7417 63.9694 31.1484C64.2743 30.5552 64.7035 30.0928 65.257 29.7614C65.8139 29.4299 66.4668 29.2642 67.2158 29.2642C67.7196 29.2642 68.1886 29.3454 68.6228 29.5078C69.0603 29.6669 69.4415 29.9072 69.7663 30.2287C70.0944 30.5502 70.3496 30.9545 70.5319 31.4418C70.7142 31.9257 70.8053 32.4924 70.8053 33.142V33.7237H64.3572V32.4112H68.8117C68.8117 32.1063 68.7454 31.8362 68.6129 31.6009C68.4803 31.3655 68.2963 31.1816 68.061 31.049C67.829 30.9131 67.5589 30.8452 67.2506 30.8452C66.9291 30.8452 66.6441 30.9197 66.3955 31.0689C66.1503 31.2147 65.958 31.4119 65.8188 31.6605C65.6796 31.9058 65.6084 32.1792 65.605 32.4808V33.7287C65.605 34.1065 65.6746 34.433 65.8139 34.7081C65.9564 34.9832 66.1569 35.1953 66.4154 35.3445C66.6739 35.4936 66.9805 35.5682 67.3352 35.5682C67.5705 35.5682 67.7859 35.535 67.9815 35.4688C68.177 35.4025 68.3444 35.303 68.4836 35.1705C68.6228 35.0379 68.7289 34.8755 68.8018 34.6832L70.7606 34.8125C70.6612 35.2831 70.4573 35.6941 70.1491 36.0455C69.8442 36.3935 69.4497 36.6652 68.9658 36.8608C68.4853 37.053 67.9301 37.1491 67.3004 37.1491ZM72.1874 37V29.3636H74.2059V30.7109H74.2954C74.4545 30.2635 74.7196 29.9105 75.0908 29.652C75.4621 29.3935 75.9062 29.2642 76.4232 29.2642C76.9469 29.2642 77.3927 29.3951 77.7606 29.657C78.1285 29.9155 78.3737 30.2668 78.4964 30.7109H78.5759C78.7317 30.2734 79.0134 29.9238 79.4211 29.6619C79.8321 29.3968 80.3176 29.2642 80.8778 29.2642C81.5904 29.2642 82.1687 29.4912 82.6129 29.9453C83.0603 30.3961 83.284 31.0357 83.284 31.8643V37H81.1711V32.282C81.1711 31.8577 81.0584 31.5395 80.833 31.3274C80.6077 31.1153 80.3259 31.0092 79.9879 31.0092C79.6034 31.0092 79.3034 31.1319 79.088 31.3771C78.8726 31.6191 78.7648 31.9389 78.7648 32.3366V37H76.7116V32.2372C76.7116 31.8627 76.6039 31.5644 76.3884 31.3423C76.1763 31.1203 75.8962 31.0092 75.5482 31.0092C75.3129 31.0092 75.1008 31.0689 74.9119 31.1882C74.7263 31.3042 74.5788 31.4683 74.4694 31.6804C74.36 31.8892 74.3053 32.1345 74.3053 32.4162V37H72.1874ZM88.4371 37.1491C87.6516 37.1491 86.9754 36.9901 86.4087 36.6719C85.8452 36.3504 85.411 35.8963 85.1061 35.3097C84.8012 34.7197 84.6487 34.022 84.6487 33.2166C84.6487 32.4311 84.8012 31.7417 85.1061 31.1484C85.411 30.5552 85.8403 30.0928 86.3938 29.7614C86.9506 29.4299 87.6035 29.2642 88.3526 29.2642C88.8563 29.2642 89.3253 29.3454 89.7595 29.5078C90.197 29.6669 90.5782 29.9072 90.903 30.2287C91.2311 30.5502 91.4863 30.9545 91.6686 31.4418C91.8509 31.9257 91.942 32.4924 91.942 33.142V33.7237H85.4939V32.4112H89.9484C89.9484 32.1063 89.8822 31.8362 89.7496 31.6009C89.617 31.3655 89.4331 31.1816 89.1977 31.049C88.9657 30.9131 88.6956 30.8452 88.3874 30.8452C88.0659 30.8452 87.7808 30.9197 87.5322 31.0689C87.287 31.2147 87.0947 31.4119 86.9555 31.6605C86.8163 31.9058 86.7451 32.1792 86.7418 32.4808V33.7287C86.7418 34.1065 86.8114 34.433 86.9506 34.7081C87.0931 34.9832 87.2936 35.1953 87.5521 35.3445C87.8107 35.4936 88.1172 35.5682 88.4719 35.5682C88.7072 35.5682 88.9226 35.535 89.1182 35.4688C89.3137 35.4025 89.4811 35.303 89.6203 35.1705C89.7595 35.0379 89.8656 34.8755 89.9385 34.6832L91.8973 34.8125C91.7979 35.2831 91.594 35.6941 91.2858 36.0455C90.9809 36.3935 90.5865 36.6652 90.1026 36.8608C89.622 37.053 89.0668 37.1491 88.4371 37.1491ZM95.442 32.5852V37H93.3242V29.3636H95.3426V30.7109H95.4321C95.6011 30.2668 95.8845 29.9155 96.2822 29.657C96.68 29.3951 97.1622 29.2642 97.729 29.2642C98.2593 29.2642 98.7216 29.3802 99.1161 29.6122C99.5105 29.8442 99.817 30.1757 100.036 30.6065C100.255 31.0341 100.364 31.5445 100.364 32.1378V37H98.246V32.5156C98.2493 32.0483 98.13 31.6837 97.8881 31.4219C97.6461 31.1567 97.313 31.0241 96.8888 31.0241C96.6037 31.0241 96.3519 31.0855 96.1331 31.2081C95.9177 31.3307 95.7486 31.5097 95.626 31.745C95.5067 31.977 95.4454 32.2571 95.442 32.5852ZM106.095 29.3636V30.9545H101.496V29.3636H106.095ZM102.54 27.5341H104.658V34.6534C104.658 34.849 104.688 35.0014 104.748 35.1108C104.807 35.2169 104.89 35.2914 104.996 35.3345C105.106 35.3776 105.232 35.3991 105.374 35.3991C105.473 35.3991 105.573 35.3909 105.672 35.3743C105.772 35.3544 105.848 35.3395 105.901 35.3295L106.234 36.9055C106.128 36.9387 105.979 36.9768 105.787 37.0199C105.594 37.0663 105.361 37.0945 105.086 37.1044C104.575 37.1243 104.128 37.0563 103.743 36.9006C103.362 36.7448 103.066 36.5028 102.853 36.1747C102.641 35.8466 102.537 35.4323 102.54 34.9318V27.5341ZM117.506 30.1094C117.436 29.8674 117.339 29.6536 117.213 29.468C117.087 29.2791 116.933 29.12 116.75 28.9908C116.571 28.8582 116.366 28.7571 116.134 28.6875C115.905 28.6179 115.652 28.5831 115.373 28.5831C114.853 28.5831 114.395 28.7124 114.001 28.9709C113.61 29.2294 113.305 29.6056 113.086 30.0994C112.867 30.59 112.758 31.1899 112.758 31.8991C112.758 32.6084 112.866 33.2116 113.081 33.7088C113.297 34.206 113.602 34.5855 113.996 34.8473C114.39 35.1058 114.856 35.2351 115.393 35.2351C115.88 35.2351 116.296 35.1489 116.641 34.9766C116.989 34.8009 117.254 34.554 117.436 34.2358C117.622 33.9176 117.715 33.5414 117.715 33.1072L118.152 33.1719H115.527V31.5511H119.788V32.8338C119.788 33.7287 119.599 34.4976 119.221 35.1406C118.843 35.7803 118.323 36.2741 117.66 36.6222C116.997 36.9669 116.238 37.1392 115.383 37.1392C114.429 37.1392 113.59 36.9287 112.867 36.5078C112.145 36.0836 111.581 35.482 111.177 34.7031C110.776 33.9209 110.576 32.9929 110.576 31.919C110.576 31.0937 110.695 30.358 110.934 29.7116C111.175 29.062 111.514 28.5118 111.948 28.0611C112.382 27.6103 112.887 27.2673 113.464 27.032C114.041 26.7966 114.666 26.679 115.338 26.679C115.915 26.679 116.452 26.7635 116.949 26.9325C117.446 27.0982 117.887 27.3336 118.272 27.6385C118.659 27.9434 118.976 28.3063 119.221 28.7273C119.466 29.1449 119.624 29.6056 119.693 30.1094H117.506ZM123.543 37.1442C123.056 37.1442 122.621 37.0597 122.24 36.8906C121.859 36.7183 121.557 36.4647 121.335 36.13C121.117 35.7919 121.007 35.371 121.007 34.8672C121.007 34.4429 121.085 34.0866 121.241 33.7983C121.397 33.5099 121.609 33.2779 121.877 33.1023C122.146 32.9266 122.451 32.794 122.792 32.7045C123.137 32.6151 123.498 32.5521 123.876 32.5156C124.32 32.4692 124.678 32.4261 124.95 32.3864C125.221 32.3433 125.419 32.2803 125.541 32.1974C125.664 32.1146 125.725 31.992 125.725 31.8295V31.7997C125.725 31.4848 125.626 31.2412 125.427 31.0689C125.231 30.8965 124.953 30.8104 124.592 30.8104C124.211 30.8104 123.907 30.8949 123.682 31.0639C123.457 31.2296 123.307 31.4384 123.234 31.6903L121.276 31.5312C121.375 31.0672 121.571 30.6662 121.862 30.3281C122.154 29.9867 122.53 29.7249 122.991 29.5426C123.455 29.357 123.992 29.2642 124.602 29.2642C125.026 29.2642 125.432 29.3139 125.82 29.4134C126.211 29.5128 126.557 29.6669 126.859 29.8757C127.164 30.0845 127.404 30.353 127.58 30.6811C127.755 31.0059 127.843 31.3954 127.843 31.8494V37H125.835V35.9411H125.775C125.652 36.1797 125.488 36.3902 125.283 36.5724C125.077 36.7514 124.83 36.8923 124.542 36.995C124.254 37.0945 123.921 37.1442 123.543 37.1442ZM124.149 35.6825C124.461 35.6825 124.736 35.6212 124.975 35.4986C125.213 35.3726 125.4 35.2036 125.536 34.9915C125.672 34.7794 125.74 34.5391 125.74 34.2706V33.4602C125.674 33.5033 125.583 33.5431 125.467 33.5795C125.354 33.6127 125.226 33.6442 125.084 33.674C124.941 33.7005 124.799 33.7254 124.656 33.7486C124.514 33.7685 124.385 33.7867 124.269 33.8033C124.02 33.8397 123.803 33.8977 123.617 33.9773C123.432 34.0568 123.288 34.1645 123.185 34.3004C123.082 34.433 123.031 34.5987 123.031 34.7976C123.031 35.0859 123.135 35.3063 123.344 35.4588C123.556 35.608 123.824 35.6825 124.149 35.6825ZM133.548 29.3636V30.9545H128.949V29.3636H133.548ZM129.993 27.5341H132.111V34.6534C132.111 34.849 132.141 35.0014 132.201 35.1108C132.26 35.2169 132.343 35.2914 132.449 35.3345C132.559 35.3776 132.685 35.3991 132.827 35.3991C132.927 35.3991 133.026 35.3909 133.125 35.3743C133.225 35.3544 133.301 35.3395 133.354 35.3295L133.687 36.9055C133.581 36.9387 133.432 36.9768 133.24 37.0199C133.048 37.0663 132.814 37.0945 132.539 37.1044C132.028 37.1243 131.581 37.0563 131.196 36.9006C130.815 36.7448 130.519 36.5028 130.307 36.1747C130.094 35.8466 129.99 35.4323 129.993 34.9318V27.5341ZM137.21 32.5852V37H135.092V26.8182H137.15V30.7109H137.239C137.412 30.2602 137.69 29.9072 138.075 29.652C138.459 29.3935 138.941 29.2642 139.521 29.2642C140.052 29.2642 140.514 29.3802 140.908 29.6122C141.306 29.8409 141.614 30.1707 141.833 30.6016C142.055 31.0291 142.165 31.5412 142.161 32.1378V37H140.043V32.5156C140.047 32.045 139.927 31.6787 139.685 31.4169C139.447 31.1551 139.112 31.0241 138.681 31.0241C138.393 31.0241 138.138 31.0855 137.916 31.2081C137.697 31.3307 137.524 31.5097 137.399 31.745C137.276 31.977 137.213 32.2571 137.21 32.5852ZM147.308 37.1491C146.523 37.1491 145.847 36.9901 145.28 36.6719C144.716 36.3504 144.282 35.8963 143.977 35.3097C143.672 34.7197 143.52 34.022 143.52 33.2166C143.52 32.4311 143.672 31.7417 143.977 31.1484C144.282 30.5552 144.711 30.0928 145.265 29.7614C145.822 29.4299 146.475 29.2642 147.224 29.2642C147.727 29.2642 148.196 29.3454 148.631 29.5078C149.068 29.6669 149.449 29.9072 149.774 30.2287C150.102 30.5502 150.357 30.9545 150.54 31.4418C150.722 31.9257 150.813 32.4924 150.813 33.142V33.7237H144.365V32.4112H148.82C148.82 32.1063 148.753 31.8362 148.621 31.6009C148.488 31.3655 148.304 31.1816 148.069 31.049C147.837 30.9131 147.567 30.8452 147.258 30.8452C146.937 30.8452 146.652 30.9197 146.403 31.0689C146.158 31.2147 145.966 31.4119 145.827 31.6605C145.687 31.9058 145.616 32.1792 145.613 32.4808V33.7287C145.613 34.1065 145.682 34.433 145.822 34.7081C145.964 34.9832 146.165 35.1953 146.423 35.3445C146.682 35.4936 146.988 35.5682 147.343 35.5682C147.578 35.5682 147.794 35.535 147.989 35.4688C148.185 35.4025 148.352 35.303 148.491 35.1705C148.631 35.0379 148.737 34.8755 148.81 34.6832L150.768 34.8125C150.669 35.2831 150.465 35.6941 150.157 36.0455C149.852 36.3935 149.458 36.6652 148.974 36.8608C148.493 37.053 147.938 37.1491 147.308 37.1491ZM152.195 37V29.3636H154.249V30.696H154.328C154.467 30.2221 154.701 29.8641 155.029 29.6222C155.357 29.3769 155.735 29.2543 156.163 29.2543C156.269 29.2543 156.383 29.2609 156.506 29.2741C156.628 29.2874 156.736 29.3056 156.829 29.3288V31.2081C156.729 31.1783 156.592 31.1518 156.416 31.1286C156.24 31.1054 156.08 31.0938 155.934 31.0938C155.622 31.0938 155.344 31.1617 155.099 31.2976C154.857 31.4302 154.664 31.6158 154.522 31.8544C154.383 32.093 154.313 32.3681 154.313 32.6797V37H152.195ZM157.924 37V29.3636H160.042V37H157.924ZM158.988 28.3793C158.673 28.3793 158.403 28.2749 158.177 28.0661C157.955 27.8539 157.844 27.6004 157.844 27.3054C157.844 27.0137 157.955 26.7635 158.177 26.5547C158.403 26.3426 158.673 26.2365 158.988 26.2365C159.303 26.2365 159.571 26.3426 159.793 26.5547C160.018 26.7635 160.131 27.0137 160.131 27.3054C160.131 27.6004 160.018 27.8539 159.793 28.0661C159.571 28.2749 159.303 28.3793 158.988 28.3793ZM163.856 32.5852V37H161.738V29.3636H163.757V30.7109H163.846C164.015 30.2668 164.299 29.9155 164.696 29.657C165.094 29.3951 165.576 29.2642 166.143 29.2642C166.673 29.2642 167.136 29.3802 167.53 29.6122C167.925 29.8442 168.231 30.1757 168.45 30.6065C168.669 31.0341 168.778 31.5445 168.778 32.1378V37H166.66V32.5156C166.663 32.0483 166.544 31.6837 166.302 31.4219C166.06 31.1567 165.727 31.0241 165.303 31.0241C165.018 31.0241 164.766 31.0855 164.547 31.2081C164.332 31.3307 164.163 31.5097 164.04 31.745C163.921 31.977 163.859 32.2571 163.856 32.5852ZM173.888 40.0227C173.201 40.0227 172.613 39.9283 172.123 39.7393C171.635 39.5537 171.248 39.3002 170.959 38.9787C170.671 38.6572 170.484 38.2959 170.397 37.8949L172.356 37.6314C172.416 37.7839 172.51 37.9264 172.64 38.0589C172.769 38.1915 172.94 38.2976 173.152 38.3771C173.367 38.46 173.629 38.5014 173.937 38.5014C174.398 38.5014 174.777 38.3887 175.076 38.1634C175.377 37.9413 175.528 37.5684 175.528 37.0447V35.6477H175.439C175.346 35.8598 175.207 36.0604 175.021 36.2493C174.835 36.4382 174.597 36.5923 174.305 36.7116C174.013 36.831 173.665 36.8906 173.261 36.8906C172.688 36.8906 172.166 36.758 171.695 36.4929C171.228 36.2244 170.855 35.8151 170.576 35.2649C170.301 34.7114 170.164 34.0121 170.164 33.1669C170.164 32.3018 170.305 31.5793 170.586 30.9993C170.868 30.4193 171.243 29.9851 171.71 29.6967C172.181 29.4084 172.696 29.2642 173.256 29.2642C173.684 29.2642 174.042 29.3371 174.33 29.483C174.618 29.6255 174.85 29.8045 175.026 30.0199C175.205 30.232 175.343 30.4408 175.439 30.6463H175.518V29.3636H177.621V37.0746C177.621 37.7242 177.462 38.2678 177.144 38.7053C176.826 39.1428 176.385 39.4709 175.821 39.6896C175.261 39.9117 174.617 40.0227 173.888 40.0227ZM173.932 35.2997C174.274 35.2997 174.562 35.2152 174.797 35.0462C175.036 34.8738 175.218 34.6286 175.344 34.3104C175.473 33.9889 175.538 33.6044 175.538 33.157C175.538 32.7095 175.475 32.3217 175.349 31.9936C175.223 31.6622 175.041 31.4053 174.802 31.223C174.564 31.0407 174.274 30.9496 173.932 30.9496C173.584 30.9496 173.291 31.044 173.052 31.233C172.814 31.4186 172.633 31.6771 172.51 32.0085C172.388 32.34 172.326 32.7228 172.326 33.157C172.326 33.5978 172.388 33.9789 172.51 34.3004C172.636 34.6186 172.817 34.8655 173.052 35.0412C173.291 35.2135 173.584 35.2997 173.932 35.2997Z" fill="white"/>
<rect x="221" y="110" width="196" height="64" rx="5" fill="#5C87C5"/>
<path d="M290.385 147V136.818H294.402C295.174 136.818 295.832 136.966 296.376 137.261C296.919 137.552 297.333 137.958 297.618 138.479C297.907 138.996 298.051 139.592 298.051 140.268C298.051 140.945 297.905 141.541 297.613 142.058C297.322 142.575 296.899 142.978 296.346 143.266C295.795 143.555 295.129 143.699 294.347 143.699H291.787V141.974H293.999C294.413 141.974 294.755 141.902 295.023 141.76C295.295 141.614 295.497 141.414 295.63 141.158C295.766 140.9 295.834 140.603 295.834 140.268C295.834 139.93 295.766 139.635 295.63 139.384C295.497 139.128 295.295 138.931 295.023 138.792C294.751 138.649 294.407 138.578 293.989 138.578H292.537V147H290.385ZM301.527 136.818V147H299.409V136.818H301.527ZM305.401 147.144C304.914 147.144 304.48 147.06 304.099 146.891C303.718 146.718 303.416 146.465 303.194 146.13C302.975 145.792 302.866 145.371 302.866 144.867C302.866 144.443 302.944 144.087 303.1 143.798C303.255 143.51 303.467 143.278 303.736 143.102C304.004 142.927 304.309 142.794 304.651 142.705C304.995 142.615 305.357 142.552 305.735 142.516C306.179 142.469 306.537 142.426 306.808 142.386C307.08 142.343 307.277 142.28 307.4 142.197C307.523 142.115 307.584 141.992 307.584 141.83V141.8C307.584 141.485 307.485 141.241 307.286 141.069C307.09 140.897 306.812 140.81 306.45 140.81C306.069 140.81 305.766 140.895 305.541 141.064C305.315 141.23 305.166 141.438 305.093 141.69L303.134 141.531C303.234 141.067 303.429 140.666 303.721 140.328C304.013 139.987 304.389 139.725 304.85 139.543C305.314 139.357 305.851 139.264 306.46 139.264C306.885 139.264 307.291 139.314 307.678 139.413C308.07 139.513 308.416 139.667 308.717 139.876C309.022 140.085 309.263 140.353 309.438 140.681C309.614 141.006 309.702 141.395 309.702 141.849V147H307.693V145.941H307.634C307.511 146.18 307.347 146.39 307.141 146.572C306.936 146.751 306.689 146.892 306.401 146.995C306.112 147.094 305.779 147.144 305.401 147.144ZM306.008 145.683C306.32 145.683 306.595 145.621 306.833 145.499C307.072 145.373 307.259 145.204 307.395 144.991C307.531 144.779 307.599 144.539 307.599 144.271V143.46C307.533 143.503 307.441 143.543 307.325 143.58C307.213 143.613 307.085 143.644 306.943 143.674C306.8 143.701 306.658 143.725 306.515 143.749C306.373 143.768 306.243 143.787 306.127 143.803C305.879 143.84 305.662 143.898 305.476 143.977C305.29 144.057 305.146 144.165 305.043 144.3C304.941 144.433 304.889 144.599 304.889 144.798C304.889 145.086 304.994 145.306 305.203 145.459C305.415 145.608 305.683 145.683 306.008 145.683ZM313.463 142.585V147H311.345V139.364H313.363V140.711H313.453C313.622 140.267 313.905 139.915 314.303 139.657C314.701 139.395 315.183 139.264 315.75 139.264C316.28 139.264 316.742 139.38 317.137 139.612C317.531 139.844 317.838 140.176 318.057 140.607C318.275 141.034 318.385 141.545 318.385 142.138V147H316.267V142.516C316.27 142.048 316.151 141.684 315.909 141.422C315.667 141.157 315.334 141.024 314.91 141.024C314.625 141.024 314.373 141.085 314.154 141.208C313.938 141.331 313.769 141.51 313.647 141.745C313.528 141.977 313.466 142.257 313.463 142.585ZM322.172 142.585V147H320.054V139.364H322.072V140.711H322.162C322.331 140.267 322.614 139.915 323.012 139.657C323.41 139.395 323.892 139.264 324.459 139.264C324.989 139.264 325.451 139.38 325.846 139.612C326.24 139.844 326.547 140.176 326.766 140.607C326.984 141.034 327.094 141.545 327.094 142.138V147H324.976V142.516C324.979 142.048 324.86 141.684 324.618 141.422C324.376 141.157 324.043 141.024 323.619 141.024C323.334 141.024 323.082 141.085 322.863 141.208C322.647 141.331 322.478 141.51 322.356 141.745C322.236 141.977 322.175 142.257 322.172 142.585ZM328.763 147V139.364H330.881V147H328.763ZM329.827 138.379C329.512 138.379 329.242 138.275 329.016 138.066C328.794 137.854 328.683 137.6 328.683 137.305C328.683 137.014 328.794 136.763 329.016 136.555C329.242 136.343 329.512 136.237 329.827 136.237C330.142 136.237 330.41 136.343 330.632 136.555C330.858 136.763 330.97 137.014 330.97 137.305C330.97 137.6 330.858 137.854 330.632 138.066C330.41 138.275 330.142 138.379 329.827 138.379ZM334.695 142.585V147H332.577V139.364H334.596V140.711H334.685C334.854 140.267 335.138 139.915 335.535 139.657C335.933 139.395 336.415 139.264 336.982 139.264C337.513 139.264 337.975 139.38 338.369 139.612C338.764 139.844 339.07 140.176 339.289 140.607C339.508 141.034 339.617 141.545 339.617 142.138V147H337.499V142.516C337.503 142.048 337.383 141.684 337.141 141.422C336.899 141.157 336.566 141.024 336.142 141.024C335.857 141.024 335.605 141.085 335.386 141.208C335.171 141.331 335.002 141.51 334.879 141.745C334.76 141.977 334.699 142.257 334.695 142.585ZM344.727 150.023C344.041 150.023 343.452 149.928 342.962 149.739C342.475 149.554 342.087 149.3 341.798 148.979C341.51 148.657 341.323 148.296 341.237 147.895L343.195 147.631C343.255 147.784 343.35 147.926 343.479 148.059C343.608 148.192 343.779 148.298 343.991 148.377C344.206 148.46 344.468 148.501 344.776 148.501C345.237 148.501 345.617 148.389 345.915 148.163C346.217 147.941 346.367 147.568 346.367 147.045V145.648H346.278C346.185 145.86 346.046 146.06 345.86 146.249C345.675 146.438 345.436 146.592 345.144 146.712C344.853 146.831 344.505 146.891 344.1 146.891C343.527 146.891 343.005 146.758 342.534 146.493C342.067 146.224 341.694 145.815 341.416 145.265C341.141 144.711 341.003 144.012 341.003 143.167C341.003 142.302 341.144 141.579 341.426 140.999C341.707 140.419 342.082 139.985 342.549 139.697C343.02 139.408 343.535 139.264 344.095 139.264C344.523 139.264 344.881 139.337 345.169 139.483C345.458 139.625 345.69 139.804 345.865 140.02C346.044 140.232 346.182 140.441 346.278 140.646H346.357V139.364H348.46V147.075C348.46 147.724 348.301 148.268 347.983 148.705C347.665 149.143 347.224 149.471 346.661 149.69C346.101 149.912 345.456 150.023 344.727 150.023ZM344.771 145.3C345.113 145.3 345.401 145.215 345.637 145.046C345.875 144.874 346.057 144.629 346.183 144.31C346.313 143.989 346.377 143.604 346.377 143.157C346.377 142.71 346.314 142.322 346.188 141.994C346.062 141.662 345.88 141.405 345.641 141.223C345.403 141.041 345.113 140.95 344.771 140.95C344.423 140.95 344.13 141.044 343.891 141.233C343.653 141.419 343.472 141.677 343.35 142.009C343.227 142.34 343.166 142.723 343.166 143.157C343.166 143.598 343.227 143.979 343.35 144.3C343.476 144.619 343.656 144.866 343.891 145.041C344.13 145.214 344.423 145.3 344.771 145.3Z" fill="white"/>
<rect x="441" width="196" height="64" rx="5" fill="#5C87C5"/>
<path d="M519.995 37H516.386V26.8182H520.025C521.049 26.8182 521.931 27.022 522.67 27.4297C523.409 27.834 523.977 28.4157 524.375 29.1747C524.776 29.9337 524.977 30.8419 524.977 31.8991C524.977 32.9598 524.776 33.8712 524.375 34.6335C523.977 35.3958 523.406 35.9808 522.66 36.3885C521.917 36.7962 521.029 37 519.995 37ZM518.538 35.1555H519.906C520.542 35.1555 521.077 35.0429 521.511 34.8175C521.949 34.5888 522.277 34.2358 522.496 33.7585C522.718 33.2779 522.829 32.6581 522.829 31.8991C522.829 31.1468 522.718 30.532 522.496 30.0547C522.277 29.5774 521.951 29.2261 521.516 29.0007C521.082 28.7753 520.547 28.6626 519.911 28.6626H518.538V35.1555ZM530.012 37.1491C529.226 37.1491 528.55 36.9901 527.983 36.6719C527.42 36.3504 526.986 35.8963 526.681 35.3097C526.376 34.7197 526.223 34.022 526.223 33.2166C526.223 32.4311 526.376 31.7417 526.681 31.1484C526.986 30.5552 527.415 30.0928 527.968 29.7614C528.525 29.4299 529.178 29.2642 529.927 29.2642C530.431 29.2642 530.9 29.3454 531.334 29.5078C531.772 29.6669 532.153 29.9072 532.478 30.2287C532.806 30.5502 533.061 30.9545 533.243 31.4418C533.425 31.9257 533.517 32.4924 533.517 33.142V33.7237H527.068V32.4112H531.523C531.523 32.1063 531.457 31.8362 531.324 31.6009C531.192 31.3655 531.008 31.1816 530.772 31.049C530.54 30.9131 530.27 30.8452 529.962 30.8452C529.64 30.8452 529.355 30.9197 529.107 31.0689C528.862 31.2147 528.669 31.4119 528.53 31.6605C528.391 31.9058 528.32 32.1792 528.316 32.4808V33.7287C528.316 34.1065 528.386 34.433 528.525 34.7081C528.668 34.9832 528.868 35.1953 529.127 35.3445C529.385 35.4936 529.692 35.5682 530.046 35.5682C530.282 35.5682 530.497 35.535 530.693 35.4688C530.888 35.4025 531.056 35.303 531.195 35.1705C531.334 35.0379 531.44 34.8755 531.513 34.6832L533.472 34.8125C533.372 35.2831 533.169 35.6941 532.86 36.0455C532.555 36.3935 532.161 36.6652 531.677 36.8608C531.197 37.053 530.641 37.1491 530.012 37.1491ZM541.252 31.5412L539.313 31.6605C539.28 31.4948 539.209 31.3456 539.1 31.2131C538.99 31.0772 538.846 30.9695 538.667 30.8899C538.491 30.8071 538.281 30.7656 538.036 30.7656C537.708 30.7656 537.431 30.8352 537.206 30.9744C536.98 31.1103 536.867 31.2926 536.867 31.5213C536.867 31.7036 536.94 31.8577 537.086 31.9837C537.232 32.1096 537.482 32.2107 537.837 32.2869L539.219 32.5653C539.961 32.7178 540.515 32.9631 540.88 33.3011C541.244 33.6392 541.426 34.0833 541.426 34.6335C541.426 35.134 541.279 35.5732 540.984 35.951C540.692 36.3288 540.291 36.6238 539.781 36.8359C539.274 37.0447 538.689 37.1491 538.026 37.1491C537.015 37.1491 536.21 36.9387 535.61 36.5178C535.013 36.0935 534.663 35.5168 534.561 34.7876L536.644 34.6783C536.707 34.9865 536.859 35.2218 537.101 35.3842C537.343 35.5433 537.653 35.6229 538.031 35.6229C538.402 35.6229 538.7 35.5516 538.926 35.4091C539.154 35.2633 539.27 35.076 539.274 34.8473C539.27 34.6551 539.189 34.4976 539.03 34.375C538.871 34.2491 538.626 34.1529 538.294 34.0866L536.972 33.8232C536.226 33.674 535.671 33.4155 535.306 33.0476C534.945 32.6797 534.764 32.2107 534.764 31.6406C534.764 31.1501 534.897 30.7275 535.162 30.3729C535.431 30.0182 535.807 29.7448 536.291 29.5526C536.778 29.3603 537.348 29.2642 538.001 29.2642C538.965 29.2642 539.724 29.468 540.278 29.8757C540.835 30.2834 541.16 30.8385 541.252 31.5412ZM542.76 37V29.3636H544.878V37H542.76ZM543.824 28.3793C543.509 28.3793 543.239 28.2749 543.014 28.0661C542.792 27.8539 542.68 27.6004 542.68 27.3054C542.68 27.0137 542.792 26.7635 543.014 26.5547C543.239 26.3426 543.509 26.2365 543.824 26.2365C544.139 26.2365 544.407 26.3426 544.629 26.5547C544.855 26.7635 544.967 27.0137 544.967 27.3054C544.967 27.6004 544.855 27.8539 544.629 28.0661C544.407 28.2749 544.139 28.3793 543.824 28.3793ZM550.015 40.0227C549.329 40.0227 548.74 39.9283 548.25 39.7393C547.763 39.5537 547.375 39.3002 547.087 38.9787C546.798 38.6572 546.611 38.2959 546.525 37.8949L548.484 37.6314C548.543 37.7839 548.638 37.9264 548.767 38.0589C548.896 38.1915 549.067 38.2976 549.279 38.3771C549.494 38.46 549.756 38.5014 550.065 38.5014C550.525 38.5014 550.905 38.3887 551.203 38.1634C551.505 37.9413 551.655 37.5684 551.655 37.0447V35.6477H551.566C551.473 35.8598 551.334 36.0604 551.148 36.2493C550.963 36.4382 550.724 36.5923 550.432 36.7116C550.141 36.831 549.793 36.8906 549.388 36.8906C548.815 36.8906 548.293 36.758 547.822 36.4929C547.355 36.2244 546.982 35.8151 546.704 35.2649C546.429 34.7114 546.291 34.0121 546.291 33.1669C546.291 32.3018 546.432 31.5793 546.714 30.9993C546.995 30.4193 547.37 29.9851 547.837 29.6967C548.308 29.4084 548.823 29.2642 549.383 29.2642C549.811 29.2642 550.169 29.3371 550.457 29.483C550.746 29.6255 550.978 29.8045 551.153 30.0199C551.332 30.232 551.47 30.4408 551.566 30.6463H551.645V29.3636H553.748V37.0746C553.748 37.7242 553.589 38.2678 553.271 38.7053C552.953 39.1428 552.512 39.4709 551.949 39.6896C551.389 39.9117 550.744 40.0227 550.015 40.0227ZM550.06 35.2997C550.401 35.2997 550.689 35.2152 550.925 35.0462C551.163 34.8738 551.346 34.6286 551.471 34.3104C551.601 33.9889 551.665 33.6044 551.665 33.157C551.665 32.7095 551.602 32.3217 551.476 31.9936C551.351 31.6622 551.168 31.4053 550.93 31.223C550.691 31.0407 550.401 30.9496 550.06 30.9496C549.712 30.9496 549.418 31.044 549.18 31.233C548.941 31.4186 548.76 31.6771 548.638 32.0085C548.515 32.34 548.454 32.7228 548.454 33.157C548.454 33.5978 548.515 33.9789 548.638 34.3004C548.764 34.6186 548.944 34.8655 549.18 35.0412C549.418 35.2135 549.712 35.2997 550.06 35.2997ZM557.552 32.5852V37H555.434V29.3636H557.452V30.7109H557.542C557.711 30.2668 557.994 29.9155 558.392 29.657C558.79 29.3951 559.272 29.2642 559.839 29.2642C560.369 29.2642 560.831 29.3802 561.226 29.6122C561.62 29.8442 561.927 30.1757 562.145 30.6065C562.364 31.0341 562.474 31.5445 562.474 32.1378V37H560.356V32.5156C560.359 32.0483 560.24 31.6837 559.998 31.4219C559.756 31.1567 559.423 31.0241 558.998 31.0241C558.713 31.0241 558.462 31.0855 558.243 31.2081C558.027 31.3307 557.858 31.5097 557.736 31.745C557.616 31.977 557.555 32.2571 557.552 32.5852Z" fill="white"/>
<rect x="661" y="110" width="196" height="64" rx="5" fill="#5C87C5"/>
<path d="M718.286 147H714.677V136.818H718.316C719.34 136.818 720.222 137.022 720.961 137.43C721.7 137.834 722.268 138.416 722.666 139.175C723.067 139.934 723.268 140.842 723.268 141.899C723.268 142.96 723.067 143.871 722.666 144.634C722.268 145.396 721.697 145.981 720.951 146.388C720.208 146.796 719.32 147 718.286 147ZM716.829 145.156H718.197C718.833 145.156 719.368 145.043 719.802 144.817C720.24 144.589 720.568 144.236 720.787 143.759C721.009 143.278 721.12 142.658 721.12 141.899C721.12 141.147 721.009 140.532 720.787 140.055C720.568 139.577 720.242 139.226 719.807 139.001C719.373 138.775 718.838 138.663 718.202 138.663H716.829V145.156ZM728.303 147.149C727.517 147.149 726.841 146.99 726.274 146.672C725.711 146.35 725.277 145.896 724.972 145.31C724.667 144.72 724.514 144.022 724.514 143.217C724.514 142.431 724.667 141.742 724.972 141.148C725.277 140.555 725.706 140.093 726.259 139.761C726.816 139.43 727.469 139.264 728.218 139.264C728.722 139.264 729.191 139.345 729.625 139.508C730.063 139.667 730.444 139.907 730.769 140.229C731.097 140.55 731.352 140.955 731.534 141.442C731.716 141.926 731.808 142.492 731.808 143.142V143.724H725.359V142.411H729.814C729.814 142.106 729.748 141.836 729.615 141.601C729.483 141.366 729.299 141.182 729.063 141.049C728.831 140.913 728.561 140.845 728.253 140.845C727.931 140.845 727.646 140.92 727.398 141.069C727.153 141.215 726.96 141.412 726.821 141.661C726.682 141.906 726.611 142.179 726.607 142.481V143.729C726.607 144.107 726.677 144.433 726.816 144.708C726.959 144.983 727.159 145.195 727.418 145.344C727.676 145.494 727.983 145.568 728.337 145.568C728.573 145.568 728.788 145.535 728.984 145.469C729.179 145.402 729.347 145.303 729.486 145.17C729.625 145.038 729.731 144.875 729.804 144.683L731.763 144.812C731.663 145.283 731.46 145.694 731.151 146.045C730.846 146.393 730.452 146.665 729.968 146.861C729.488 147.053 728.932 147.149 728.303 147.149ZM740.104 139.364L737.434 147H735.048L732.378 139.364H734.615L736.201 144.827H736.281L737.862 139.364H740.104ZM744.422 147.149C743.636 147.149 742.96 146.99 742.393 146.672C741.83 146.35 741.396 145.896 741.091 145.31C740.786 144.72 740.633 144.022 740.633 143.217C740.633 142.431 740.786 141.742 741.091 141.148C741.396 140.555 741.825 140.093 742.378 139.761C742.935 139.43 743.588 139.264 744.337 139.264C744.841 139.264 745.31 139.345 745.744 139.508C746.182 139.667 746.563 139.907 746.888 140.229C747.216 140.55 747.471 140.955 747.653 141.442C747.836 141.926 747.927 142.492 747.927 143.142V143.724H741.479V142.411H745.933C745.933 142.106 745.867 141.836 745.734 141.601C745.602 141.366 745.418 141.182 745.182 141.049C744.95 140.913 744.68 140.845 744.372 140.845C744.051 140.845 743.766 140.92 743.517 141.069C743.272 141.215 743.079 141.412 742.94 141.661C742.801 141.906 742.73 142.179 742.726 142.481V143.729C742.726 144.107 742.796 144.433 742.935 144.708C743.078 144.983 743.278 145.195 743.537 145.344C743.795 145.494 744.102 145.568 744.457 145.568C744.692 145.568 744.907 145.535 745.103 145.469C745.298 145.402 745.466 145.303 745.605 145.17C745.744 145.038 745.85 144.875 745.923 144.683L747.882 144.812C747.783 145.283 747.579 145.694 747.27 146.045C746.966 146.393 746.571 146.665 746.087 146.861C745.607 147.053 745.052 147.149 744.422 147.149ZM751.427 136.818V147H749.309V136.818H751.427ZM756.574 147.149C755.801 147.149 755.133 146.985 754.57 146.657C754.01 146.326 753.577 145.865 753.272 145.275C752.968 144.682 752.815 143.994 752.815 143.212C752.815 142.423 752.968 141.733 753.272 141.143C753.577 140.55 754.01 140.089 754.57 139.761C755.133 139.43 755.801 139.264 756.574 139.264C757.346 139.264 758.012 139.43 758.572 139.761C759.136 140.089 759.57 140.55 759.875 141.143C760.18 141.733 760.332 142.423 760.332 143.212C760.332 143.994 760.18 144.682 759.875 145.275C759.57 145.865 759.136 146.326 758.572 146.657C758.012 146.985 757.346 147.149 756.574 147.149ZM756.584 145.509C756.935 145.509 757.228 145.409 757.463 145.21C757.699 145.008 757.876 144.733 757.995 144.385C758.118 144.037 758.179 143.641 758.179 143.197C758.179 142.753 758.118 142.357 757.995 142.009C757.876 141.661 757.699 141.385 757.463 141.183C757.228 140.981 756.935 140.88 756.584 140.88C756.229 140.88 755.931 140.981 755.689 141.183C755.45 141.385 755.269 141.661 755.147 142.009C755.027 142.357 754.968 142.753 754.968 143.197C754.968 143.641 755.027 144.037 755.147 144.385C755.269 144.733 755.45 145.008 755.689 145.21C755.931 145.409 756.229 145.509 756.584 145.509ZM761.709 149.864V139.364H763.797V140.646H763.892C763.985 140.441 764.119 140.232 764.294 140.02C764.473 139.804 764.705 139.625 764.99 139.483C765.279 139.337 765.637 139.264 766.064 139.264C766.621 139.264 767.135 139.41 767.606 139.702C768.076 139.99 768.452 140.426 768.734 141.009C769.016 141.589 769.157 142.317 769.157 143.192C769.157 144.044 769.019 144.763 768.744 145.349C768.472 145.933 768.101 146.375 767.63 146.677C767.163 146.975 766.639 147.124 766.059 147.124C765.648 147.124 765.299 147.056 765.01 146.92C764.725 146.785 764.492 146.614 764.309 146.408C764.127 146.2 763.988 145.989 763.892 145.777H763.827V149.864H761.709ZM763.782 143.182C763.782 143.636 763.845 144.032 763.971 144.37C764.097 144.708 764.28 144.972 764.518 145.161C764.757 145.346 765.047 145.439 765.388 145.439C765.733 145.439 766.025 145.344 766.263 145.156C766.502 144.963 766.682 144.698 766.805 144.36C766.931 144.019 766.994 143.626 766.994 143.182C766.994 142.741 766.933 142.353 766.81 142.018C766.687 141.684 766.507 141.422 766.268 141.233C766.03 141.044 765.736 140.95 765.388 140.95C765.044 140.95 764.752 141.041 764.513 141.223C764.278 141.405 764.097 141.664 763.971 141.999C763.845 142.333 763.782 142.728 763.782 143.182ZM770.569 147V139.364H772.587V140.711H772.677C772.836 140.263 773.101 139.911 773.472 139.652C773.843 139.393 774.287 139.264 774.804 139.264C775.328 139.264 775.774 139.395 776.142 139.657C776.51 139.915 776.755 140.267 776.878 140.711H776.957C777.113 140.273 777.395 139.924 777.802 139.662C778.213 139.397 778.699 139.264 779.259 139.264C779.972 139.264 780.55 139.491 780.994 139.945C781.441 140.396 781.665 141.036 781.665 141.864V147H779.552V142.282C779.552 141.858 779.44 141.54 779.214 141.327C778.989 141.115 778.707 141.009 778.369 141.009C777.985 141.009 777.685 141.132 777.469 141.377C777.254 141.619 777.146 141.939 777.146 142.337V147H775.093V142.237C775.093 141.863 774.985 141.564 774.77 141.342C774.557 141.12 774.277 141.009 773.929 141.009C773.694 141.009 773.482 141.069 773.293 141.188C773.107 141.304 772.96 141.468 772.851 141.68C772.741 141.889 772.687 142.134 772.687 142.416V147H770.569ZM786.818 147.149C786.033 147.149 785.357 146.99 784.79 146.672C784.226 146.35 783.792 145.896 783.487 145.31C783.182 144.72 783.03 144.022 783.03 143.217C783.03 142.431 783.182 141.742 783.487 141.148C783.792 140.555 784.221 140.093 784.775 139.761C785.332 139.43 785.985 139.264 786.734 139.264C787.238 139.264 787.707 139.345 788.141 139.508C788.578 139.667 788.959 139.907 789.284 140.229C789.612 140.55 789.868 140.955 790.05 141.442C790.232 141.926 790.323 142.492 790.323 143.142V143.724H783.875V142.411H788.33C788.33 142.106 788.263 141.836 788.131 141.601C787.998 141.366 787.814 141.182 787.579 141.049C787.347 140.913 787.077 140.845 786.769 140.845C786.447 140.845 786.162 140.92 785.913 141.069C785.668 141.215 785.476 141.412 785.337 141.661C785.198 141.906 785.126 142.179 785.123 142.481V143.729C785.123 144.107 785.193 144.433 785.332 144.708C785.474 144.983 785.675 145.195 785.933 145.344C786.192 145.494 786.498 145.568 786.853 145.568C787.088 145.568 787.304 145.535 787.499 145.469C787.695 145.402 787.862 145.303 788.001 145.17C788.141 145.038 788.247 144.875 788.32 144.683L790.278 144.812C790.179 145.283 789.975 145.694 789.667 146.045C789.362 146.393 788.968 146.665 788.484 146.861C788.003 147.053 787.448 147.149 786.818 147.149ZM793.823 142.585V147H791.705V139.364H793.724V140.711H793.813C793.982 140.267 794.266 139.915 794.663 139.657C795.061 139.395 795.543 139.264 796.11 139.264C796.64 139.264 797.103 139.38 797.497 139.612C797.892 139.844 798.198 140.176 798.417 140.607C798.636 141.034 798.745 141.545 798.745 142.138V147H796.627V142.516C796.631 142.048 796.511 141.684 796.269 141.422C796.027 141.157 795.694 141.024 795.27 141.024C794.985 141.024 794.733 141.085 794.514 141.208C794.299 141.331 794.13 141.51 794.007 141.745C793.888 141.977 793.827 142.257 793.823 142.585ZM804.476 139.364V140.955H799.877V139.364H804.476ZM800.921 137.534H803.039V144.653C803.039 144.849 803.069 145.001 803.129 145.111C803.188 145.217 803.271 145.291 803.377 145.335C803.487 145.378 803.613 145.399 803.755 145.399C803.855 145.399 803.954 145.391 804.054 145.374C804.153 145.354 804.229 145.339 804.282 145.33L804.615 146.906C804.509 146.939 804.36 146.977 804.168 147.02C803.976 147.066 803.742 147.094 803.467 147.104C802.956 147.124 802.509 147.056 802.125 146.901C801.743 146.745 801.447 146.503 801.235 146.175C801.023 145.847 800.918 145.432 800.921 144.932V137.534Z" fill="white"/>
<rect x="884" width="193" height="64" rx="5" fill="#5C87C5"/>
<path d="M955.742 28.593V26.8182H964.105V28.593H960.987V37H958.86V28.593H955.742ZM967.815 37.1491C967.029 37.1491 966.353 36.9901 965.786 36.6719C965.223 36.3504 964.789 35.8963 964.484 35.3097C964.179 34.7197 964.026 34.022 964.026 33.2166C964.026 32.4311 964.179 31.7417 964.484 31.1484C964.789 30.5552 965.218 30.0928 965.771 29.7614C966.328 29.4299 966.981 29.2642 967.73 29.2642C968.234 29.2642 968.703 29.3454 969.137 29.5078C969.575 29.6669 969.956 29.9072 970.281 30.2287C970.609 30.5502 970.864 30.9545 971.046 31.4418C971.228 31.9257 971.32 32.4924 971.32 33.142V33.7237H964.871V32.4112H969.326C969.326 32.1063 969.26 31.8362 969.127 31.6009C968.995 31.3655 968.811 31.1816 968.575 31.049C968.343 30.9131 968.073 30.8452 967.765 30.8452C967.443 30.8452 967.158 30.9197 966.91 31.0689C966.665 31.2147 966.472 31.4119 966.333 31.6605C966.194 31.9058 966.123 32.1792 966.119 32.4808V33.7287C966.119 34.1065 966.189 34.433 966.328 34.7081C966.471 34.9832 966.671 35.1953 966.93 35.3445C967.188 35.4936 967.495 35.5682 967.849 35.5682C968.085 35.5682 968.3 35.535 968.496 35.4688C968.691 35.4025 968.859 35.303 968.998 35.1705C969.137 35.0379 969.243 34.8755 969.316 34.6832L971.275 34.8125C971.175 35.2831 970.972 35.6941 970.663 36.0455C970.358 36.3935 969.964 36.6652 969.48 36.8608C969 37.053 968.444 37.1491 967.815 37.1491ZM979.055 31.5412L977.117 31.6605C977.083 31.4948 977.012 31.3456 976.903 31.2131C976.793 31.0772 976.649 30.9695 976.47 30.8899C976.295 30.8071 976.084 30.7656 975.839 30.7656C975.511 30.7656 975.234 30.8352 975.009 30.9744C974.783 31.1103 974.67 31.2926 974.67 31.5213C974.67 31.7036 974.743 31.8577 974.889 31.9837C975.035 32.1096 975.285 32.2107 975.64 32.2869L977.022 32.5653C977.764 32.7178 978.318 32.9631 978.683 33.3011C979.047 33.6392 979.229 34.0833 979.229 34.6335C979.229 35.134 979.082 35.5732 978.787 35.951C978.495 36.3288 978.094 36.6238 977.584 36.8359C977.077 37.0447 976.492 37.1491 975.829 37.1491C974.818 37.1491 974.013 36.9387 973.413 36.5178C972.816 36.0935 972.466 35.5168 972.364 34.7876L974.447 34.6783C974.51 34.9865 974.662 35.2218 974.904 35.3842C975.146 35.5433 975.456 35.6229 975.834 35.6229C976.205 35.6229 976.503 35.5516 976.729 35.4091C976.957 35.2633 977.073 35.076 977.077 34.8473C977.073 34.6551 976.992 34.4976 976.833 34.375C976.674 34.2491 976.429 34.1529 976.097 34.0866L974.775 33.8232C974.029 33.674 973.474 33.4155 973.109 33.0476C972.748 32.6797 972.568 32.2107 972.568 31.6406C972.568 31.1501 972.7 30.7275 972.965 30.3729C973.234 30.0182 973.61 29.7448 974.094 29.5526C974.581 29.3603 975.151 29.2642 975.804 29.2642C976.769 29.2642 977.528 29.468 978.081 29.8757C978.638 30.2834 978.963 30.8385 979.055 31.5412ZM984.625 29.3636V30.9545H980.026V29.3636H984.625ZM981.07 27.5341H983.188V34.6534C983.188 34.849 983.218 35.0014 983.278 35.1108C983.337 35.2169 983.42 35.2914 983.526 35.3345C983.636 35.3776 983.761 35.3991 983.904 35.3991C984.003 35.3991 984.103 35.3909 984.202 35.3743C984.302 35.3544 984.378 35.3395 984.431 35.3295L984.764 36.9055C984.658 36.9387 984.509 36.9768 984.317 37.0199C984.124 37.0663 983.891 37.0945 983.616 37.1044C983.105 37.1243 982.658 37.0563 982.273 36.9006C981.892 36.7448 981.596 36.5028 981.383 36.1747C981.171 35.8466 981.067 35.4323 981.07 34.9318V27.5341ZM986.004 37V29.3636H988.122V37H986.004ZM987.068 28.3793C986.754 28.3793 986.483 28.2749 986.258 28.0661C986.036 27.8539 985.925 27.6004 985.925 27.3054C985.925 27.0137 986.036 26.7635 986.258 26.5547C986.483 26.3426 986.754 26.2365 987.068 26.2365C987.383 26.2365 987.652 26.3426 987.874 26.5547C988.099 26.7635 988.212 27.0137 988.212 27.3054C988.212 27.6004 988.099 27.8539 987.874 28.0661C987.652 28.2749 987.383 28.3793 987.068 28.3793ZM991.937 32.5852V37H989.819V29.3636H991.837V30.7109H991.927C992.096 30.2668 992.379 29.9155 992.777 29.657C993.175 29.3951 993.657 29.2642 994.224 29.2642C994.754 29.2642 995.216 29.3802 995.611 29.6122C996.005 29.8442 996.312 30.1757 996.531 30.6065C996.749 31.0341 996.859 31.5445 996.859 32.1378V37H994.741V32.5156C994.744 32.0483 994.625 31.6837 994.383 31.4219C994.141 31.1567 993.808 31.0241 993.384 31.0241C993.099 31.0241 992.847 31.0855 992.628 31.2081C992.412 31.3307 992.243 31.5097 992.121 31.745C992.001 31.977 991.94 32.2571 991.937 32.5852ZM1001.97 40.0227C1001.28 40.0227 1000.69 39.9283 1000.2 39.7393C999.716 39.5537 999.328 39.3002 999.04 38.9787C998.752 38.6572 998.564 38.2959 998.478 37.8949L1000.44 37.6314C1000.5 37.7839 1000.59 37.9264 1000.72 38.0589C1000.85 38.1915 1001.02 38.2976 1001.23 38.3771C1001.45 38.46 1001.71 38.5014 1002.02 38.5014C1002.48 38.5014 1002.86 38.3887 1003.16 38.1634C1003.46 37.9413 1003.61 37.5684 1003.61 37.0447V35.6477H1003.52C1003.43 35.8598 1003.29 36.0604 1003.1 36.2493C1002.92 36.4382 1002.68 36.5923 1002.39 36.7116C1002.09 36.831 1001.75 36.8906 1001.34 36.8906C1000.77 36.8906 1000.25 36.758 999.776 36.4929C999.308 36.2244 998.936 35.8151 998.657 35.2649C998.382 34.7114 998.245 34.0121 998.245 33.1669C998.245 32.3018 998.385 31.5793 998.667 30.9993C998.949 30.4193 999.323 29.9851 999.791 29.6967C1000.26 29.4084 1000.78 29.2642 1001.34 29.2642C1001.76 29.2642 1002.12 29.3371 1002.41 29.483C1002.7 29.6255 1002.93 29.8045 1003.11 30.0199C1003.29 30.232 1003.42 30.4408 1003.52 30.6463H1003.6V29.3636H1005.7V37.0746C1005.7 37.7242 1005.54 38.2678 1005.22 38.7053C1004.91 39.1428 1004.47 39.4709 1003.9 39.6896C1003.34 39.9117 1002.7 40.0227 1001.97 40.0227ZM1002.01 35.2997C1002.35 35.2997 1002.64 35.2152 1002.88 35.0462C1003.12 34.8738 1003.3 34.6286 1003.42 34.3104C1003.55 33.9889 1003.62 33.6044 1003.62 33.157C1003.62 32.7095 1003.56 32.3217 1003.43 31.9936C1003.3 31.6622 1003.12 31.4053 1002.88 31.223C1002.64 31.0407 1002.35 30.9496 1002.01 30.9496C1001.66 30.9496 1001.37 31.044 1001.13 31.233C1000.89 31.4186 1000.71 31.6771 1000.59 32.0085C1000.47 32.34 1000.41 32.7228 1000.41 33.157C1000.41 33.5978 1000.47 33.9789 1000.59 34.3004C1000.72 34.6186 1000.9 34.8655 1001.13 35.0412C1001.37 35.2135 1001.66 35.2997 1002.01 35.2997Z" fill="white"/>
<rect x="1104" y="110" width="193" height="64" rx="5" fill="#5C87C5"/>
<path d="M1163.86 147H1160.25V136.818H1163.89C1164.91 136.818 1165.8 137.022 1166.53 137.43C1167.27 137.834 1167.84 138.416 1168.24 139.175C1168.64 139.934 1168.84 140.842 1168.84 141.899C1168.84 142.96 1168.64 143.871 1168.24 144.634C1167.84 145.396 1167.27 145.981 1166.52 146.388C1165.78 146.796 1164.89 147 1163.86 147ZM1162.4 145.156H1163.77C1164.41 145.156 1164.94 145.043 1165.38 144.817C1165.81 144.589 1166.14 144.236 1166.36 143.759C1166.58 143.278 1166.69 142.658 1166.69 141.899C1166.69 141.147 1166.58 140.532 1166.36 140.055C1166.14 139.577 1165.82 139.226 1165.38 139.001C1164.95 138.775 1164.41 138.663 1163.78 138.663H1162.4V145.156ZM1173.88 147.149C1173.09 147.149 1172.41 146.99 1171.85 146.672C1171.28 146.35 1170.85 145.896 1170.55 145.31C1170.24 144.72 1170.09 144.022 1170.09 143.217C1170.09 142.431 1170.24 141.742 1170.55 141.148C1170.85 140.555 1171.28 140.093 1171.83 139.761C1172.39 139.43 1173.04 139.264 1173.79 139.264C1174.3 139.264 1174.76 139.345 1175.2 139.508C1175.64 139.667 1176.02 139.907 1176.34 140.229C1176.67 140.55 1176.93 140.955 1177.11 141.442C1177.29 141.926 1177.38 142.492 1177.38 143.142V143.724H1170.93V142.411H1175.39C1175.39 142.106 1175.32 141.836 1175.19 141.601C1175.06 141.366 1174.87 141.182 1174.64 141.049C1174.4 140.913 1174.13 140.845 1173.83 140.845C1173.5 140.845 1173.22 140.92 1172.97 141.069C1172.73 141.215 1172.53 141.412 1172.39 141.661C1172.26 141.906 1172.18 142.179 1172.18 142.481V143.729C1172.18 144.107 1172.25 144.433 1172.39 144.708C1172.53 144.983 1172.73 145.195 1172.99 145.344C1173.25 145.494 1173.56 145.568 1173.91 145.568C1174.15 145.568 1174.36 145.535 1174.56 145.469C1174.75 145.402 1174.92 145.303 1175.06 145.17C1175.2 145.038 1175.3 144.875 1175.38 144.683L1177.34 144.812C1177.24 145.283 1177.03 145.694 1176.72 146.045C1176.42 146.393 1176.03 146.665 1175.54 146.861C1175.06 147.053 1174.51 147.149 1173.88 147.149ZM1178.76 149.864V139.364H1180.85V140.646H1180.95C1181.04 140.441 1181.17 140.232 1181.35 140.02C1181.53 139.804 1181.76 139.625 1182.04 139.483C1182.33 139.337 1182.69 139.264 1183.12 139.264C1183.68 139.264 1184.19 139.41 1184.66 139.702C1185.13 139.99 1185.51 140.426 1185.79 141.009C1186.07 141.589 1186.21 142.317 1186.21 143.192C1186.21 144.044 1186.07 144.763 1185.8 145.349C1185.53 145.933 1185.16 146.375 1184.68 146.677C1184.22 146.975 1183.69 147.124 1183.11 147.124C1182.7 147.124 1182.35 147.056 1182.06 146.92C1181.78 146.785 1181.55 146.614 1181.36 146.408C1181.18 146.2 1181.04 145.989 1180.95 145.777H1180.88V149.864H1178.76ZM1180.84 143.182C1180.84 143.636 1180.9 144.032 1181.03 144.37C1181.15 144.708 1181.33 144.972 1181.57 145.161C1181.81 145.346 1182.1 145.439 1182.44 145.439C1182.79 145.439 1183.08 145.344 1183.32 145.156C1183.56 144.963 1183.74 144.698 1183.86 144.36C1183.99 144.019 1184.05 143.626 1184.05 143.182C1184.05 142.741 1183.99 142.353 1183.86 142.018C1183.74 141.684 1183.56 141.422 1183.32 141.233C1183.08 141.044 1182.79 140.95 1182.44 140.95C1182.1 140.95 1181.81 141.041 1181.57 141.223C1181.33 141.405 1181.15 141.664 1181.03 141.999C1180.9 142.333 1180.84 142.728 1180.84 143.182ZM1189.74 136.818V147H1187.62V136.818H1189.74ZM1194.89 147.149C1194.12 147.149 1193.45 146.985 1192.88 146.657C1192.32 146.326 1191.89 145.865 1191.59 145.275C1191.28 144.682 1191.13 143.994 1191.13 143.212C1191.13 142.423 1191.28 141.733 1191.59 141.143C1191.89 140.55 1192.32 140.089 1192.88 139.761C1193.45 139.43 1194.12 139.264 1194.89 139.264C1195.66 139.264 1196.33 139.43 1196.89 139.761C1197.45 140.089 1197.88 140.55 1198.19 141.143C1198.49 141.733 1198.65 142.423 1198.65 143.212C1198.65 143.994 1198.49 144.682 1198.19 145.275C1197.88 145.865 1197.45 146.326 1196.89 146.657C1196.33 146.985 1195.66 147.149 1194.89 147.149ZM1194.9 145.509C1195.25 145.509 1195.54 145.409 1195.78 145.21C1196.01 145.008 1196.19 144.733 1196.31 144.385C1196.43 144.037 1196.49 143.641 1196.49 143.197C1196.49 142.753 1196.43 142.357 1196.31 142.009C1196.19 141.661 1196.01 141.385 1195.78 141.183C1195.54 140.981 1195.25 140.88 1194.9 140.88C1194.54 140.88 1194.24 140.981 1194 141.183C1193.76 141.385 1193.58 141.661 1193.46 142.009C1193.34 142.357 1193.28 142.753 1193.28 143.197C1193.28 143.641 1193.34 144.037 1193.46 144.385C1193.58 144.733 1193.76 145.008 1194 145.21C1194.24 145.409 1194.54 145.509 1194.9 145.509ZM1201.08 149.864C1200.82 149.864 1200.56 149.842 1200.33 149.799C1200.1 149.759 1199.9 149.708 1199.75 149.645L1200.23 148.064C1200.48 148.14 1200.7 148.182 1200.9 148.188C1201.1 148.195 1201.28 148.148 1201.42 148.049C1201.57 147.95 1201.69 147.781 1201.79 147.542L1201.91 147.219L1199.17 139.364H1201.4L1202.98 144.972H1203.06L1204.65 139.364H1206.9L1203.93 147.825C1203.79 148.236 1203.59 148.594 1203.35 148.899C1203.1 149.207 1202.8 149.444 1202.43 149.61C1202.06 149.779 1201.61 149.864 1201.08 149.864ZM1207.98 147V139.364H1210V140.711H1210.09C1210.25 140.263 1210.51 139.911 1210.88 139.652C1211.25 139.393 1211.7 139.264 1212.22 139.264C1212.74 139.264 1213.19 139.395 1213.55 139.657C1213.92 139.915 1214.17 140.267 1214.29 140.711H1214.37C1214.52 140.273 1214.81 139.924 1215.21 139.662C1215.62 139.397 1216.11 139.264 1216.67 139.264C1217.38 139.264 1217.96 139.491 1218.41 139.945C1218.85 140.396 1219.08 141.036 1219.08 141.864V147H1216.96V142.282C1216.96 141.858 1216.85 141.54 1216.63 141.327C1216.4 141.115 1216.12 141.009 1215.78 141.009C1215.4 141.009 1215.1 141.132 1214.88 141.377C1214.67 141.619 1214.56 141.939 1214.56 142.337V147H1212.5V142.237C1212.5 141.863 1212.4 141.564 1212.18 141.342C1211.97 141.12 1211.69 141.009 1211.34 141.009C1211.11 141.009 1210.89 141.069 1210.7 141.188C1210.52 141.304 1210.37 141.468 1210.26 141.68C1210.15 141.889 1210.1 142.134 1210.1 142.416V147H1207.98ZM1224.23 147.149C1223.44 147.149 1222.77 146.99 1222.2 146.672C1221.64 146.35 1221.2 145.896 1220.9 145.31C1220.59 144.72 1220.44 144.022 1220.44 143.217C1220.44 142.431 1220.59 141.742 1220.9 141.148C1221.2 140.555 1221.63 140.093 1222.19 139.761C1222.74 139.43 1223.4 139.264 1224.15 139.264C1224.65 139.264 1225.12 139.345 1225.55 139.508C1225.99 139.667 1226.37 139.907 1226.7 140.229C1227.02 140.55 1227.28 140.955 1227.46 141.442C1227.64 141.926 1227.73 142.492 1227.73 143.142V143.724H1221.29V142.411H1225.74C1225.74 142.106 1225.67 141.836 1225.54 141.601C1225.41 141.366 1225.23 141.182 1224.99 141.049C1224.76 140.913 1224.49 140.845 1224.18 140.845C1223.86 140.845 1223.57 140.92 1223.32 141.069C1223.08 141.215 1222.89 141.412 1222.75 141.661C1222.61 141.906 1222.54 142.179 1222.53 142.481V143.729C1222.53 144.107 1222.6 144.433 1222.74 144.708C1222.89 144.983 1223.09 145.195 1223.34 145.344C1223.6 145.494 1223.91 145.568 1224.26 145.568C1224.5 145.568 1224.72 145.535 1224.91 145.469C1225.11 145.402 1225.27 145.303 1225.41 145.17C1225.55 145.038 1225.66 144.875 1225.73 144.683L1227.69 144.812C1227.59 145.283 1227.39 145.694 1227.08 146.045C1226.77 146.393 1226.38 146.665 1225.9 146.861C1225.41 147.053 1224.86 147.149 1224.23 147.149ZM1231.23 142.585V147H1229.12V139.364H1231.14V140.711H1231.22C1231.39 140.267 1231.68 139.915 1232.07 139.657C1232.47 139.395 1232.95 139.264 1233.52 139.264C1234.05 139.264 1234.51 139.38 1234.91 139.612C1235.3 139.844 1235.61 140.176 1235.83 140.607C1236.05 141.034 1236.16 141.545 1236.16 142.138V147H1234.04V142.516C1234.04 142.048 1233.92 141.684 1233.68 141.422C1233.44 141.157 1233.11 141.024 1232.68 141.024C1232.4 141.024 1232.14 141.085 1231.93 141.208C1231.71 141.331 1231.54 141.51 1231.42 141.745C1231.3 141.977 1231.24 142.257 1231.23 142.585ZM1241.89 139.364V140.955H1237.29V139.364H1241.89ZM1238.33 137.534H1240.45V144.653C1240.45 144.849 1240.48 145.001 1240.54 145.111C1240.6 145.217 1240.68 145.291 1240.79 145.335C1240.9 145.378 1241.02 145.399 1241.17 145.399C1241.27 145.399 1241.37 145.391 1241.46 145.374C1241.56 145.354 1241.64 145.339 1241.69 145.33L1242.03 146.906C1241.92 146.939 1241.77 146.977 1241.58 147.02C1241.39 147.066 1241.15 147.094 1240.88 147.104C1240.37 147.124 1239.92 147.056 1239.54 146.901C1239.15 146.745 1238.86 146.503 1238.65 146.175C1238.43 145.847 1238.33 145.432 1238.33 144.932V137.534Z" fill="white"/>
</svg>
